<svg width="252" height="272" viewBox="0 0 252 272" fill="none" xmlns="http://www.w3.org/2000/svg">
<path d="M238.228 163.221C236.789 155.154 233.592 147.276 229.611 140.134C225.598 132.913 220.686 126.028 215.044 119.97C214.763 119.672 214.485 119.389 214.204 119.09C216.567 111.623 217.254 103.259 215.302 95.6696C214.259 91.6259 213.17 87.6085 212.142 83.5615C211.108 79.4819 210.354 75.3623 209.438 71.2758C208.511 67.1405 207.421 62.8689 205.173 59.2399C203.001 55.7313 200.129 52.7888 197.158 49.9346C191.694 44.6711 186.994 38.6587 181.392 33.5423C175.626 28.2895 168.669 25.6022 160.884 25.4236C153.539 25.2403 145.873 26.6483 138.952 29.2953C139.445 28.8895 139.936 28.4675 140.43 28.0617C140.576 27.9471 140.481 27.6444 140.272 27.7038C137.225 28.4768 134.318 29.4416 131.523 30.621C130.27 30.7915 129.012 30.861 127.778 31.1292C125.974 31.5134 124.283 32.3664 122.462 32.754C118.754 33.526 115.016 33.4899 111.309 32.7694C108.006 32.1193 104.423 30.8477 101.01 31.4068C100.664 31.0365 100.181 30.7449 99.5935 30.6101C84.1013 27.3883 66.1687 25.1721 51.6501 33.0623C49.0547 34.4724 46.8521 36.3961 44.9078 38.5893C44.7676 38.567 44.6144 38.5642 44.4516 38.5974C42.1853 39.0418 40.082 39.5378 37.865 40.1418C35.3876 40.7988 33.0284 40.7873 30.5167 40.9426C28.4089 41.0834 26.3331 41.0482 24.2251 41.1043C22.2702 41.1632 20.9662 41.9204 19.4549 43.0759C13.3679 47.7404 10.543 55.3526 8.16897 62.3473C6.95297 65.9523 6.10688 70.0416 6.61209 73.8557C7.12754 77.8034 8.50315 81.7287 10.3531 85.2352C14.5581 93.2305 21.2014 99.6273 25.4031 107.606C27.8598 112.261 28.7936 117.514 31.5235 122.011C32.4902 123.595 33.5378 124.993 34.712 126.263C37.4834 130.548 40.9312 134.408 44.5153 138.104C47.0039 140.666 49.5925 143.887 52.7365 145.672C54.0392 146.407 55.7448 146.789 57.2214 146.963C59.2001 147.187 61.1661 147.516 63.1388 147.878C65.1832 148.259 67.0557 148.878 68.6791 150.022C68.8787 150.253 69.1075 150.461 69.3456 150.548C69.7116 150.847 70.0484 151.168 70.3788 151.542C71.7854 153.121 73.049 154.83 74.3127 156.54C77.0201 160.177 80.5237 163.228 83.5691 166.61C85.0999 168.299 86.4944 170.152 88.2752 171.57C90.1539 173.053 91.8271 174.442 93.3552 176.284C96.3459 179.897 99.2067 183.622 101.938 187.458C102.389 188.095 103.212 187.639 103.288 187.013C103.534 187.472 103.793 187.911 104.072 188.363C106.317 192.06 109.375 195.423 112.643 198.233C119.032 203.715 127.628 207.375 135.561 209.948C140.063 211.405 144.714 212.51 149.385 213.221C151.012 213.466 152.636 213.695 154.265 213.787C156.976 215.61 159.716 217.409 162.466 219.172C164.2 220.277 165.973 221.324 167.759 222.351C169.392 223.29 170.99 223.812 172.758 224.504C172.85 224.536 172.925 224.572 173.016 224.604C173.811 225.341 174.644 226.019 175.496 226.625C175.722 226.817 175.944 226.992 176.179 227.148C176.829 227.592 177.57 227.984 178.305 228.343C178.87 228.787 179.432 229.216 179.984 229.68C181.37 230.822 182.336 232.406 183.657 233.646C185.145 235.039 186.732 236.089 188.618 236.858C196.355 240.048 204.775 238.351 212.754 237.065C214.692 236.756 216.633 236.462 218.548 236.039C220.674 235.572 222.622 234.649 224.627 233.834C228.317 232.303 231.987 230.674 235.411 228.587C238.051 226.981 241.288 225.389 241.112 221.864C240.997 219.632 240.445 217.337 239.968 215.162C239.488 212.97 239.504 210.966 239.376 208.754C239.191 205.265 237.315 201.712 235.437 198.568C236.053 197.764 236.559 196.915 236.983 195.998C238.342 193.347 238.931 190.158 239.025 187.29C239.079 185.889 238.927 184.563 238.64 183.316C238.595 182.765 238.554 182.231 238.514 181.697C238.869 179.776 239.041 177.791 239.099 175.66C239.202 171.501 238.956 167.295 238.228 163.221ZM193.238 201.919C193.314 202.04 193.389 202.16 193.448 202.283C188.408 205.26 187.646 212.927 187.185 218.158C187.05 219.746 186.459 226.004 187.505 229.641C186.456 228.989 185.405 228.322 184.386 227.563C184.265 227.469 184.144 227.375 184.023 227.28C183.978 225.73 184.24 224.099 184.334 222.978C184.559 220.253 184.849 217.515 185.316 214.808C186.29 209.099 188.219 203.585 191.909 199.053C192.016 198.912 191.803 198.786 191.69 198.894C187.194 203.879 185.304 210.334 184.342 216.855C183.861 220.073 183.374 223.512 183.399 226.797C183.193 226.619 182.987 226.44 182.781 226.262C182.889 226.29 182.996 226.319 183.104 226.348C183.352 226.4 183.455 225.989 183.217 225.902C179.984 224.932 181.134 219.085 181.536 216.646C182.024 213.546 182.939 210.544 184.056 207.621C185.096 204.9 186.315 202.226 187.596 199.609C188.971 196.785 190.61 193.756 193.734 192.695C193.087 195.761 191.674 199.067 193.238 201.919ZM141.823 191.818C141.812 190.345 141.787 188.892 141.799 187.448C143.361 182.297 146.394 178.204 150.68 174.855C151.398 174.302 152.139 173.778 152.881 173.254C154.118 173.833 155.812 172.997 155.699 171.443C158.815 169.588 162.084 167.989 165.353 166.476C176.167 161.46 187.77 157.402 199.545 155.361C205.098 154.4 210.809 154.22 215.941 156.855C219.917 158.895 223.447 162.076 226.271 165.537C226.497 165.813 226.726 166.106 226.935 166.385C221.368 162.194 214.381 159.852 207.432 159.283C194.43 158.216 181.775 163.268 170.104 168.408C164.3 170.963 158.161 173.621 153.199 177.649C149.02 181.027 144.568 185.477 143.074 190.8C142.318 193.498 142.114 196.744 142.526 199.848C141.272 197.102 140.782 193.946 141.064 190.921C141.092 191.221 141.138 191.534 141.182 191.83C141.251 192.172 141.828 192.173 141.823 191.818ZM153.807 172.642C153.853 172.616 153.895 172.573 153.94 172.547C153.931 172.583 153.918 172.602 153.908 172.638C153.876 172.645 153.84 172.635 153.807 172.642ZM205.339 146.754C211.441 147.58 216.659 150.554 220.763 154.975C216.681 153.246 212.165 152.469 207.568 152.625C207.299 152.052 207.03 151.48 206.761 150.907C206.357 150.091 205.526 149.005 205.34 148.093C205.214 147.559 205.229 147.132 205.339 146.754ZM233.264 184.563C232.921 183.209 232.395 181.874 231.65 180.551C229.486 176.667 226.66 173.36 223.099 170.693C216.731 165.902 209.356 162.825 201.452 161.976C183.924 160.084 169.367 172.781 159.294 185.599C156.289 189.415 153.256 193.34 150.745 197.496C149.563 199.433 148.573 201.483 148.042 203.626C146.004 202.107 144.54 200.082 144.347 197.052C144.03 191.827 147.927 186.319 151.45 182.804C155.367 178.887 160.122 175.426 164.85 172.581C175.308 166.315 187.277 161.063 199.519 159.893C210.047 158.886 221.463 161.412 228.927 169.337C231.021 172.879 232.377 176.791 232.984 180.94C233.161 182.142 233.237 183.348 233.264 184.563ZM228.687 188.649C228.02 188.038 227.289 187.526 226.476 187.115C226.456 186.933 226.435 186.75 226.396 186.555C226.107 185.054 225.593 183.276 224.903 181.89C223.223 178.468 219.199 177.608 215.711 177.216C212.38 176.843 208.952 176.914 205.631 177.505C203.176 177.106 200.682 176.936 198.206 177.016C185.476 177.369 171.444 182.651 162.021 191.335C159.549 193.601 157.421 196.222 156.004 199.173C155.164 200.294 154.575 201.566 154.3 203.047C154.182 203.715 154.161 204.449 154.229 205.198C154.182 205.631 154.134 206.065 154.123 206.508C154.064 206.554 154.026 206.613 153.967 206.659C153.719 206.523 153.458 206.406 153.18 206.293C152.332 205.957 151.497 205.601 150.687 205.207C156.847 195.237 164.934 186.401 175.04 180.325C186.704 173.321 201.554 170.891 214.719 174.671C217.889 175.586 222.001 177.292 224.968 179.791C226.481 181.976 227.815 184.282 228.876 186.66C228.904 187.299 228.835 187.957 228.687 188.649ZM222.243 184.314C222.295 184.32 222.334 184.346 222.387 184.353C223.893 184.673 224.818 185.553 225.151 186.689C224.217 185.845 223.243 185.06 222.243 184.314ZM218.327 183.484C218.278 183.578 218.23 183.673 218.181 183.768C217.75 183.482 217.319 183.197 216.875 182.931C217.071 182.976 217.279 183.002 217.478 183.063C217.817 183.146 218.157 183.23 218.479 183.317C218.421 183.363 218.362 183.408 218.327 183.484ZM212.291 187.815C211.975 186.015 211.688 184.191 211.164 182.449L211.161 182.433C211.471 182.624 211.781 182.815 212.095 183.023C212.115 183.036 212.141 182.996 212.121 182.983C211.742 182.705 211.334 182.448 210.929 182.209C211.786 182.255 212.643 182.301 213.494 182.399C213.931 182.632 214.376 182.898 214.836 183.16C214.025 184.342 213.564 185.657 213.507 187.042C213.182 187.363 212.834 187.654 212.448 187.919C212.372 187.884 212.33 187.841 212.291 187.815ZM171.284 209.933C170.706 209.508 170.102 209.122 169.485 208.756C168.921 205.819 169.428 202.816 171.67 199.918C173.078 198.088 174.891 196.498 176.877 195.093C175.182 196.846 173.742 198.851 172.648 201.058C171.713 202.961 169.713 207.794 171.284 209.933ZM148.483 203.96C148.566 203.366 148.646 202.926 148.675 202.818C149.861 199.067 152.284 195.81 154.554 192.635C163.935 179.499 175.365 165.93 192.165 163.001C201.205 161.432 209.801 164.176 216.561 170.312C218.077 171.682 219.569 173.175 220.978 174.771C215.531 172.251 209.213 171.282 203.338 171.325C188.799 171.453 174.888 177.914 164.293 187.667C159.122 192.417 154.663 197.92 150.92 203.854C150.69 204.223 150.464 204.608 150.234 204.977C149.63 204.676 149.032 204.323 148.483 203.96ZM160.084 206.058C159.983 205.976 159.885 205.912 159.771 205.85C159.731 205.739 159.692 205.629 159.672 205.531C159.497 204.753 159.589 204.039 159.883 203.402C160.866 202.236 161.974 201.179 163.147 200.194C164.051 199.637 165.017 199.135 165.976 198.686C165.873 198.842 165.785 198.996 165.685 199.169C164.331 201.598 163.753 204.09 163.749 206.566C162.571 206.28 161.336 206.125 160.084 206.058ZM200.958 178.456C197.616 178.696 194.354 179.75 191.306 181.1C183.816 184.371 176.409 187.88 168.962 191.278C165.829 192.713 161.757 194.203 158.673 196.544C158.686 196.524 158.699 196.505 158.712 196.485C161.391 192.82 165.037 189.907 168.88 187.547C178.134 181.865 189.005 178.295 199.912 178.398C200.524 178.409 201.137 178.42 201.773 178.46L201.756 178.463C201.496 178.432 201.241 178.433 200.958 178.456ZM215.204 183.967C215.062 184.521 214.865 185.053 214.593 185.549C214.735 184.995 214.932 184.463 215.204 183.967ZM214.416 187.179C215.212 186.254 215.762 185.125 216.002 183.889C216.508 184.21 217.014 184.531 217.523 184.868C216.707 186.103 215.681 187.142 214.494 188.062C214.451 187.766 214.424 187.466 214.416 187.179ZM221.733 155.405C217.721 150.524 211.63 147.423 205.371 146.663C205.694 145.749 206.594 145.261 207.485 144.723C211.679 146.667 215.757 148.872 219.53 151.58C221.277 152.835 222.957 154.172 224.568 155.591C225.601 156.5 226.605 157.431 227.566 158.406C228.014 158.857 228.446 159.312 228.894 159.763C228.894 159.763 229.708 160.767 229.975 161.408C227.603 158.839 224.788 156.835 221.733 155.405ZM193.818 192.441C190.97 193.191 189.159 195.543 187.777 198.08C185.841 201.645 184.136 205.434 182.774 209.238C181.661 212.348 180.828 215.586 180.546 218.866C175.128 217.154 179.7 206.049 181.312 202.804C183.234 198.92 185.914 195.509 189.176 192.708C190.765 192.35 192.337 191.996 193.927 191.808C193.905 192.033 193.879 192.242 193.818 192.441ZM179.364 205.812C178.14 209.046 175.057 218.304 180.535 219.224C180.494 219.775 180.47 220.322 180.462 220.867C180.456 221.919 180.483 223.135 180.825 224.15C180.757 224.062 180.672 223.978 180.6 223.874C179.035 221.852 178.178 219.89 177.238 217.521C176.689 216.158 175.974 214.896 175.149 213.758C174.673 211.922 175.542 209.693 176.116 208.016C176.862 205.847 177.806 203.738 178.907 201.734C180.539 198.756 182.491 196.019 184.747 193.525C186.024 193.383 187.281 193.145 188.547 192.87C184.457 196.348 181.272 200.777 179.364 205.812ZM184.297 193.396C181.411 196.459 178.995 199.918 177.18 203.747C176.278 205.643 174.177 209.649 174.269 212.683C173.647 211.961 172.97 211.302 172.251 210.685C172.604 210.834 173.015 210.937 173.497 210.974C173.738 210.993 173.773 210.664 173.541 210.609C168.438 209.444 173.568 200.413 175.179 198.084C176.412 196.307 177.892 194.751 179.526 193.367C181.458 192.193 183.471 191.173 185.384 190.241C185.003 191.2 184.618 192.143 184.237 193.103C184.208 193.21 184.231 193.324 184.297 193.396ZM198.724 183.642C198.926 183.635 199.112 183.631 199.298 183.627C198.78 183.749 198.262 183.872 197.745 183.994C198.077 183.876 198.409 183.757 198.724 183.642ZM208.753 182.431C208.916 182.398 209.046 182.287 209.14 182.166C209.668 182.177 210.196 182.188 210.711 182.219C210.805 182.268 210.9 182.316 210.978 182.368C210.897 182.385 210.812 182.47 210.816 182.571C210.877 184.034 211.11 185.512 211.356 186.971C210.417 186.026 209.518 185.023 208.535 184.273C207.914 183.806 207.218 183.388 206.468 183.032C207.236 182.808 207.994 182.62 208.753 182.431ZM213.497 188.079C213.511 188.313 213.561 188.557 213.594 188.805C213.402 188.692 213.206 188.562 213.026 188.429C213.189 188.311 213.351 188.193 213.497 188.079ZM218.327 185.484C218.029 186.766 217.241 188.062 217.711 189.289C217.077 189.588 216.377 189.731 215.529 189.564C215.193 189.497 214.867 189.394 214.554 189.271C216.082 188.281 217.345 186.99 218.327 185.484ZM218.814 188.539C218.827 187.689 219.094 186.668 219.123 186.56C219.171 186.381 219.223 186.218 219.271 186.038C219.686 186.327 220.1 186.616 220.499 186.907C219.934 187.463 219.392 188.049 218.814 188.539ZM221.724 185.844C221.636 185.913 221.548 185.982 221.461 186.05C220.824 185.587 220.151 185.113 219.462 184.643C219.454 184.272 219.381 183.913 219.269 183.529C219.683 183.648 220.078 183.755 220.492 183.874C221.942 184.749 223.31 185.725 224.565 186.809C224.155 186.96 223.814 187.284 223.748 187.789C223.365 187.494 222.924 187.16 222.464 186.813C222.502 186.754 222.525 186.698 222.567 186.656C222.94 186.071 222.26 185.481 221.724 185.844ZM229.638 188.489C229.865 189.104 230.092 189.719 230.286 190.341C229.992 189.977 229.684 189.633 229.38 189.305C229.477 189.031 229.558 188.76 229.638 188.489ZM232.583 164.727C231.898 163.696 231.142 162.731 230.351 161.841C230.467 161.579 230.456 161.192 230.351 160.84C229.978 159.678 228.201 158.446 227.335 157.605C226.237 156.54 225.096 155.517 223.913 154.537C219.027 150.445 213.531 147.019 207.635 144.625C208.058 144.369 208.461 144.101 208.799 143.761C209.01 143.548 209.185 143.326 209.373 143.084C218.165 146.127 225.396 151.912 230.695 159.532C230.836 159.724 231.112 159.498 230.987 159.303C226.011 151.516 218.249 145.788 209.519 142.885C210.135 141.996 210.568 140.959 210.773 139.882C212.622 140.218 214.385 141.301 216.014 142.224C217.852 143.257 219.658 144.382 221.396 145.588C224.198 147.527 226.627 149.881 229.238 152.046C230.977 156.423 232.326 160.964 233.169 165.608C232.973 165.309 232.78 165.026 232.583 164.727ZM210.884 137.096C213.197 137.88 215.458 138.827 217.642 139.976C219.539 140.964 221.357 142.069 223.102 143.307C223.931 143.885 224.735 144.501 225.51 145.14C225.712 145.302 226.097 145.529 226.382 145.76C226.467 145.929 226.556 146.114 226.641 146.283C226.583 146.329 226.472 146.369 226.293 146.405C226.094 146.429 226.154 146.722 226.336 146.702C226.502 146.685 226.672 146.684 226.838 146.667C227.452 147.933 228.036 149.221 228.588 150.516C225.973 148.081 222.818 145.993 219.967 144.149C217.449 142.525 214.107 140.018 210.824 139.55C210.91 139.058 210.944 138.559 210.942 138.051C210.945 137.728 210.927 137.392 210.884 137.096ZM226.024 145.002C221.541 141.302 216.37 138.557 210.844 136.816C210.097 131.898 205.135 131.094 200.935 129.371C199.303 128.686 198.037 128.215 198.324 126.376C198.487 125.342 198.712 124.364 198.845 123.353C201.621 124.077 204.315 124.986 206.92 126.203C208.512 126.947 210.073 127.782 211.552 128.719C212.192 129.114 212.839 129.542 213.453 129.977C214.263 130.541 214.938 130.692 213.384 130.635C213.23 130.632 213.208 130.857 213.365 130.876C213.942 130.962 214.535 131.045 215.125 131.111C215.334 131.137 215.431 130.863 215.271 130.743C210.497 127.034 204.796 124.431 198.883 123.125C198.96 122.584 199 122.033 199.005 121.472C198.994 120.254 198.827 119.101 198.423 118.03C202.112 119.33 205.806 120.647 209.508 121.928C209.652 121.967 209.756 121.895 209.785 121.787C211.27 123.587 212.743 125.407 214.229 127.207C218.751 132.679 222.783 138.658 226.024 145.002ZM141.264 93.2093C141.399 93.3686 141.533 93.5278 141.67 93.7033C141.896 93.9795 142.269 93.6491 142.093 93.3629C141.994 93.2134 141.893 93.0475 141.794 92.898C141.811 92.8946 141.84 92.8717 141.856 92.8684C142.907 93.3666 143.867 94.002 144.692 94.8856C145.797 96.0679 146.326 97.4185 147.038 98.8335C147.353 99.4646 148.232 99.1162 148.158 98.5038C148.074 97.7579 147.827 97.0451 147.486 96.3684C147.463 96.2545 147.42 96.1275 147.38 96.0169C147.364 95.9355 147.289 95.8999 147.22 95.8968C146.254 94.3132 144.662 92.9924 142.959 92.2031C143.999 91.5674 145.056 90.9283 146.136 90.3185C146.296 90.4385 146.598 90.343 146.594 90.0725C146.61 90.0692 146.623 90.0496 146.64 90.0463C147.854 92.4275 148.95 94.8156 150.102 97.2263C150.394 97.8281 151.172 97.4833 151.108 96.9198L151.124 96.9164C151.114 96.8676 151.091 96.8383 151.082 96.7895L151.078 96.7732C150.937 96.3273 150.792 95.865 150.65 95.4191C150.643 95.3865 150.62 95.3573 150.581 95.3313C149.831 93.3135 148.795 91.3032 147.596 89.4955C148.315 89.1118 149.056 88.7573 149.801 88.4191C150.602 90.9353 151.387 93.7937 152.731 96.0637C151.515 97.7526 148.356 102.058 146.896 99.9648C146.512 99.4154 146.48 98.591 146.051 97.9831C145.603 97.3623 145.041 96.8493 144.381 96.441C142.751 95.4332 140.789 95.29 138.926 95.4659C138.294 95.5267 137.649 95.6071 137.008 95.7038C138.471 94.8971 139.879 94.0679 141.264 93.2093ZM153.36 95.2403C152.717 92.8279 151.392 90.4014 150.312 88.1795C151.34 87.7328 152.375 87.3186 153.439 86.9663C153.999 88.6328 154.626 90.7944 155.781 92.221C154.885 93.1496 154.113 94.1885 153.36 95.2403ZM156.343 91.6488C156.053 90.9785 155.654 90.3477 155.296 89.6744C154.814 88.7213 154.38 87.7582 153.98 86.7885C155.754 86.2577 157.496 85.9878 159.197 85.9298C159.315 87.0928 159.57 88.3465 160.069 89.4657C158.92 89.8184 157.818 90.3989 156.846 91.2072C156.674 91.3609 156.515 91.4951 156.343 91.6488ZM157.311 80.4976C149.112 81.285 141.697 86.508 135.01 90.8878C131.749 93.0269 128.761 95.7549 125.82 98.3035C123.819 100.051 121.756 101.742 119.732 103.46C124.57 97.6593 129.474 92.0148 135.915 87.7532C144.205 82.2501 153.852 79.1669 163.799 78.7189C168.872 78.4831 174.841 78.5735 178.91 81.9843C180.322 83.1722 181.516 84.54 182.59 85.9831C181.835 86.2725 181.027 86.4708 180.246 86.6299C178.826 86.902 177.389 87.0079 175.952 86.9444C170.717 82.5501 164.331 79.8315 157.311 80.4976ZM93.7779 140.216C94.0019 140.899 94.3265 141.494 94.7226 142.024C92.3495 145.526 90.6824 149.663 90.3223 153.891C89.4732 151.47 88.7315 148.992 88.335 146.462C89.4832 143.023 90.5954 139.575 91.724 136.123C91.7433 136.052 91.6519 136.019 91.613 136.078C90.4872 139.376 89.3614 142.675 88.2519 145.97C88.1383 145.162 88.0735 144.344 88.0414 143.52C87.9855 141.497 88.1998 139.384 88.8774 137.466C89.113 136.791 89.505 136.134 89.7242 135.462C91.0442 135.533 91.8336 133.914 91.2172 132.801C91.8983 132.815 92.5953 132.741 93.2921 132.582C92.9364 135.249 93.0009 137.898 93.7779 140.216ZM65.693 127.027C64.9887 124.983 63.2933 122.818 63.9453 121.024C64.2357 120.201 65.0646 119.609 65.9459 119.107C68.9521 122.463 71.9063 125.897 74.9969 129.168C75.0149 130.589 75.0979 131.996 75.2298 133.394C75.2669 133.742 75.3039 134.091 75.3736 134.433C72.4076 130.441 69.305 126.529 66.2642 122.586C66.0613 122.339 65.6811 122.637 65.871 122.904C69.1418 127.393 72.3607 131.96 75.768 136.37C76.2671 138.405 76.9748 140.466 77.5028 142.393C78.0835 144.496 78.8075 146.553 79.5282 148.594C75.0358 141.352 70.3579 134.199 65.693 127.027ZM64.688 128.503C64.3018 128.938 63.6481 129.308 62.929 129.607C62.7643 127.216 62.7495 124.811 62.8715 122.412C62.9541 122.735 63.0692 123.05 63.1844 123.366C63.0704 123.389 62.983 123.543 63.0583 123.663C63.6088 124.534 64.1429 125.409 64.6967 126.297C65.0677 127.12 65.2302 127.918 64.688 128.503ZM71.7007 149.373C71.563 149.113 71.4089 148.856 71.2745 148.612C70.2318 146.739 69.2672 144.833 68.3482 142.9C66.4673 138.908 64.8173 134.801 63.4375 130.606C63.3486 130.336 62.9615 130.516 63.0341 130.79C64.9389 136.981 67.4328 142.985 70.5416 148.677C69.6013 148.139 68.6513 147.637 67.6787 147.191C67.2398 146.534 66.8172 145.874 66.4075 145.194C65.6111 143.864 64.8602 142.508 64.1712 141.122C63.118 139.031 60.0173 133.795 60.9728 131.158C61.5519 130.922 62.1115 130.672 62.6841 130.403C62.7847 131.23 62.8886 132.074 63.0414 132.908C63.0679 133.038 63.247 133.002 63.2401 132.884C63.1295 132.008 63.0549 131.142 62.9964 130.272C63.6438 129.953 64.2748 129.638 64.9026 129.307C67.2828 136.334 70.4016 143.076 74.3174 149.4C74.9236 150.379 75.5428 151.338 76.1782 152.294C75.8418 152.057 75.4857 151.808 75.1167 151.578C74.0161 150.835 72.8795 150.083 71.7007 149.373ZM74.4795 112.385C75.0022 112.787 75.5216 113.173 76.054 113.539C75.9171 114.449 75.816 115.368 75.7149 116.287C75.3261 115.044 74.8233 113.824 74.2458 112.653C74.3302 112.568 74.395 112.47 74.4795 112.385ZM80.0828 102.596C80.3612 101.132 80.6201 99.6547 80.8593 98.1646C82.3499 94.8259 84.1767 91.6392 86.3366 88.6729C86.6441 89.0172 86.9679 89.3583 87.2721 89.6864C87.3375 89.7578 87.4385 89.7542 87.497 89.7084C86.2364 92.6781 85.0672 95.6801 83.8426 98.6595C81.7194 101.89 79.7726 105.236 78.3251 108.787C78.2148 107.995 78.2384 107.278 78.3175 106.584C79.0258 105.066 79.5189 103.491 79.6861 101.897C79.7148 101.704 79.4507 101.656 79.3665 101.826C79.3536 101.846 79.3536 101.846 79.3569 101.862C79.7152 100.873 80.1093 99.8943 80.5231 98.9283C80.3644 100.148 80.2219 101.364 80.0632 102.583C80.0698 102.615 80.0861 102.612 80.0828 102.596ZM77.6549 78.9267C77.4162 78.6701 77.1741 78.3972 76.919 78.1439C76.8536 78.0724 76.7366 78.1641 76.802 78.2355C76.9983 78.4499 77.1946 78.6643 77.3908 78.8787C76.742 78.7734 76.0709 78.8083 75.3711 79.0355C76.5839 77.3304 77.8392 75.6674 79.1174 74.0337C83.3938 76.3 86.7753 79.8339 88.8597 84.2422C88.9483 84.4276 89.2022 84.342 89.1949 84.14C89.154 83.6058 89.113 83.0715 89.0721 82.5372C89.0718 82.4525 88.9187 82.4497 88.9189 82.5345C88.8425 83.9913 88.8173 83.2843 88.3714 82.5103C88.1321 82.0842 87.8798 81.6777 87.6112 81.2746C86.7759 80.0033 85.804 78.8107 84.7055 77.7456C83.0935 76.1577 81.2416 74.8899 79.2244 73.8932C81.2067 71.387 83.274 68.9652 85.4621 66.6375C87.4815 64.4799 89.5858 62.4066 91.7589 60.4212C92.074 60.1366 92.9761 59.0712 93.4254 58.9458C94.303 59.2589 95.1969 59.5686 96.0745 59.8817C96.2948 60.4643 96.3979 61.0537 96.3544 61.673C96.371 61.7544 96.368 61.8229 96.3682 61.9076C95.9675 62.854 95.658 63.8326 95.4725 64.8369C95.4629 64.8728 95.4565 64.925 95.4469 64.9609C94.7593 63.9987 94.0391 63.0431 93.3548 62.0972C93.1944 61.8924 92.8824 62.1086 92.9776 62.3266C93.5069 63.6771 93.8342 65.0348 93.9076 66.4782C93.9398 67.3025 94.0604 70.1436 93.378 70.7065C92.1759 71.7143 88.1034 68.1177 87.0838 67.2739C86.9596 67.1635 86.8007 67.3824 86.9249 67.4928C88.8401 69.1546 90.9432 70.49 93.2571 71.5281C93.3321 71.5637 93.4428 71.5242 93.475 71.4328C94.4045 68.8357 94.5224 66.1665 93.8389 63.5586C94.3399 64.2706 94.8442 64.9988 95.3582 65.6911C95.261 66.7961 95.3462 67.881 95.451 68.9788C95.2121 69.6379 94.9766 70.3132 94.7736 70.9819C93.8329 74.107 92.8564 77.2223 91.8602 80.3248C91.6531 80.723 91.4329 81.1409 91.2258 81.5392C91.0056 81.957 90.8051 82.3879 90.6012 82.8024C90.2346 83.2501 89.8646 83.6815 89.4946 84.1129C89.6008 83.7183 89.707 83.3236 89.8164 82.9452C89.8454 82.8376 89.679 82.7697 89.65 82.8774C89.5116 83.3634 89.3635 83.8853 89.2154 84.4072C88.9006 84.7765 88.5988 85.1262 88.3003 85.4922C87.5636 86.3713 86.8629 87.2601 86.2013 88.1748C86.0868 88.0285 85.9722 87.8823 85.9068 87.8108C84.8667 86.6999 83.8267 85.589 82.7867 84.4781C82.4629 84.1371 82.1358 83.7797 81.8283 83.4354C81.2964 81.3223 79.6508 79.4021 77.6549 78.9267ZM81.0825 82.6037C80.17 81.6195 79.2379 80.6223 78.3254 79.638C79.5069 80.1945 80.5047 81.3479 81.0825 82.6037ZM106.644 50.0825C106.998 49.7391 107.368 49.3924 107.722 49.049C106.833 50.0948 105.966 51.1699 105.123 52.2742C102.223 56.1034 99.4774 60.1894 97.3647 64.5535C97.1115 63.8928 97.0788 62.899 97.0068 61.8793C99.0665 57.2547 103.143 53.5421 106.644 50.0825ZM93.553 81.7267C93.5659 81.7071 93.5756 81.6712 93.5886 81.6516C94.2331 82.4022 94.9913 83.0448 95.4377 83.9883C96.0975 85.397 96.0642 87.0655 95.6847 88.5332C95.061 90.9663 93.4418 92.9238 91.721 94.7155C92.1579 93.8635 92.5786 93.0148 93.0026 92.1824C93.0771 92.0485 92.8485 91.9255 92.7741 92.0593C92.1101 93.2119 91.469 94.3938 90.867 95.6015C90.8248 95.644 90.7826 95.6866 90.7404 95.7291C90.6819 95.7749 90.6952 95.84 90.7084 95.9051C90.4108 96.5253 90.1165 97.1618 89.8384 97.7949C89.0357 96.517 88.5875 95.0652 88.4062 93.5082C89.1975 91.4818 89.9922 89.4717 90.8423 87.4843C90.8519 87.4484 90.8778 87.4092 90.8875 87.3733C91.4822 85.9636 92.1161 84.5797 92.7662 83.1925C93.0415 82.7126 93.2973 82.2196 93.553 81.7267ZM159.935 54.3248C161.699 55.746 163.324 57.3143 164.897 58.9611C163.391 59.6408 161.907 60.3498 160.434 61.1076C160.594 60.3119 160.627 59.4743 160.5 58.6014C160.273 56.9859 159.936 55.6641 159.935 54.3248ZM170.68 48.305C172.037 50.64 173.397 52.9914 174.875 55.2511C174.074 55.4819 173.26 55.7324 172.466 55.9958C170.775 52.2704 167.786 49.0807 164.487 46.7849C164.386 46.7037 164.266 46.8638 164.367 46.945C167.83 49.4618 170.105 52.5595 171.955 56.1507C170.702 56.5754 169.456 57.0326 168.232 57.5191C166.596 54.4779 164.002 51.6485 161.82 49.0914C162.319 48.2946 162.896 47.5496 163.549 47.0097C164.228 46.4306 165.406 45.8856 166.328 46.003C168.663 46.3078 167.707 46.9433 168.755 47.6794C169.369 48.1139 169.691 48.6929 170.553 48.3477C170.589 48.3574 170.634 48.3312 170.68 48.305ZM172.408 45.7996C174.344 48.6443 176.28 51.5737 178.339 54.3593C177.349 54.5778 176.382 54.8255 175.422 55.1058C174.064 52.686 172.57 50.3449 171.073 47.9875C171.602 47.4219 172.003 46.4756 172.311 45.989C172.35 45.9302 172.369 45.8584 172.408 45.7996ZM174.728 41.9529C178.36 45.3002 181.153 49.1912 183.741 53.4121C182.233 53.5834 180.725 53.8395 179.231 54.1607C177.165 51.1731 174.88 48.2808 172.68 45.3881C173.358 44.3006 174.032 43.1969 174.709 42.1094C174.731 42.054 174.738 42.0018 174.728 41.9529ZM184.501 79.1334C185.308 79.6813 186.105 80.2651 186.889 80.8685C186.754 81.2861 186.615 81.6874 186.496 82.1017C186.4 80.7985 185.618 79.6183 184.372 79.2446C184.397 79.2054 184.44 79.1629 184.501 79.1334ZM193.03 80.4662C193.064 80.7985 193.572 80.712 193.538 80.3797C193.504 79.9627 193.418 79.5394 193.27 79.1456C198.211 84.261 201.776 90.8606 202.697 97.8799C203.011 100.258 203.69 102.51 204.148 104.842C203.937 104.308 203.711 103.778 203.484 103.247C202.196 100.254 200.766 97.3065 199.123 94.4869C199.339 92.7981 199.591 91.1191 199.93 89.456C199.978 89.1919 199.581 89.1541 199.513 89.4053C199.202 90.7913 198.877 92.1969 198.589 93.6121C197.665 92.0707 196.682 90.5751 195.608 89.1319C195.209 88.5858 194.797 88.0593 194.368 87.5362C194.563 86.4113 194.79 85.2797 195.086 84.1512C195.131 83.9555 194.85 83.8262 194.773 84.0285C194.467 85.0234 194.197 86.028 193.965 87.0585C193.491 86.4769 192.984 85.9018 192.48 85.3431C192.635 83.938 192.774 82.5363 192.945 81.128C192.98 80.8835 192.579 80.8295 192.563 81.0869C192.411 82.3388 192.23 83.6136 192.061 84.8687C191.368 84.1281 190.665 83.4234 189.93 82.7253C190.29 81.3294 190.718 79.9365 191.212 78.5303C191.286 78.3117 190.973 78.1889 190.882 78.4108C190.382 79.6997 189.94 81.0275 189.534 82.365C188.844 81.7254 188.129 81.125 187.4 80.5442C187.764 79.334 188.144 78.1204 188.58 76.9295C190.892 76.5436 192.833 78.1663 193.03 80.4662ZM182.372 58.8457C190.371 61.4056 196.791 68.4581 200.09 76.1633C201.542 79.5474 202.609 83.0435 203.4 86.596C202.951 85.721 202.492 84.8818 202.007 84.0818C201.725 83.6135 201.427 83.1486 201.116 82.7032C200.108 80.5853 198.993 78.5231 197.755 76.52C193.292 69.3402 187.079 63.0593 179.419 59.4978C180.422 59.2597 181.395 59.0446 182.372 58.8457ZM206.019 106.123C206.18 107.413 206.357 108.699 206.534 109.986C206.453 109.833 206.374 109.696 206.276 109.547C206.083 108.433 205.997 107.263 206.019 106.123ZM187.252 81.1508C187.981 81.7316 188.683 82.3516 189.39 82.9879C189.01 84.2861 188.701 85.6037 188.432 86.9472C187.71 86.3142 186.975 85.7009 186.23 85.1234C186.535 83.7895 186.875 82.4653 187.252 81.1508ZM189.792 83.3808C190.547 84.0918 191.276 84.8421 191.992 85.6119C191.802 87.0073 191.598 88.4223 191.407 89.8176C190.613 88.9959 189.805 88.1938 188.955 87.4342C189.185 86.0647 189.47 84.7179 189.792 83.3808ZM192.45 86.1122C192.931 86.6417 193.399 87.1908 193.854 87.7595C193.565 89.09 193.345 90.4236 193.196 91.7765C192.801 91.3314 192.402 90.87 191.989 90.4283C192.154 88.9874 192.302 87.5498 192.45 86.1122ZM194.283 88.2827C195.808 90.1936 197.209 92.2482 198.474 94.3816C198.27 95.4576 198.081 96.5304 197.945 97.6095C196.626 95.8771 195.264 94.1873 193.857 92.5237C193.924 91.1027 194.063 89.701 194.283 88.2827ZM199.045 95.3507C199.127 95.5036 199.228 95.6694 199.31 95.8223C201.212 99.2504 202.808 102.842 204.245 106.484C203.957 106.068 203.668 105.652 203.4 105.249C201.883 102.963 200.311 100.739 198.662 98.5488C198.785 97.4893 198.905 96.4135 199.045 95.3507ZM187.083 80.2357C186.4 79.7134 185.704 79.2107 184.992 78.7113C185.97 77.9356 187.066 77.2378 188.248 76.9633C187.857 78.0432 187.454 79.1428 187.083 80.2357ZM185.726 84.7341C185.707 84.7211 185.684 84.6918 185.664 84.6789C185.703 84.6201 185.758 84.558 185.797 84.4992C185.765 84.5905 185.746 84.6623 185.726 84.7341ZM184.718 89.0259C184.404 90.6498 184.159 92.2767 184.002 93.9196C181.721 92.044 179.466 90.1291 177.295 88.1292C177.125 87.9603 176.942 87.8111 176.776 87.6585C178.506 87.6623 180.252 87.4087 181.788 86.9602C182.189 86.8448 182.586 86.7131 182.989 86.5292C183.582 87.3581 184.158 88.1904 184.718 89.0259ZM184.508 94.3252C184.741 92.8026 184.997 91.3093 185.268 89.8126C186.041 90.944 186.814 92.0754 187.662 93.1576C187.625 93.7247 187.607 94.3048 187.606 94.8816C187.417 94.7845 187.124 94.9289 187.069 95.1604C186.995 95.4637 186.935 95.8322 186.845 96.2235C186.074 95.6005 185.283 94.9645 184.508 94.3252ZM188.133 96.6395C188.166 95.7172 188.202 94.8111 188.254 93.9018C189.027 94.8637 189.799 95.8256 190.574 96.8038C190.505 97.547 190.42 98.2935 190.367 99.0334C189.638 98.4526 188.91 97.8718 188.178 97.2748C188.171 97.0728 188.144 96.8578 188.133 96.6395ZM191.111 97.5254C192.493 99.3129 193.864 101.136 195.187 102.97C193.739 101.772 192.295 100.591 190.818 99.4164C190.927 98.7839 191.019 98.1546 191.111 97.5254ZM198.974 63.605C200.324 66.6537 201.446 69.9183 202.386 73.1184C204.463 80.1565 206.687 87.1647 207.745 94.4442C207.505 93.6793 207.261 92.898 207.004 92.1364C204.906 85.5774 202.879 78.9529 199.388 72.9657C195.726 66.7249 190.285 61.1517 183.649 58.6197C186.433 58.1377 189.234 57.9064 192.024 57.949C195.664 58.0049 197.614 60.5074 198.974 63.605ZM161.661 49.395C162.898 50.8897 164.093 52.427 165.225 53.9938C166.1 55.2062 166.876 56.5233 167.751 57.7358C166.921 58.0743 166.078 58.4324 165.255 58.8034C163.701 57.0002 161.887 55.4195 159.956 54.0151C159.989 53.0928 160.204 52.1503 160.748 51.0731C160.997 50.5476 161.301 49.96 161.661 49.395ZM172.697 61.6292C174.588 60.9221 176.541 60.2702 178.52 59.7485C187.54 63.6606 194.364 71.3602 199.106 79.9924C196.639 77.0355 193.691 74.4647 190.519 72.3803C180.46 65.7802 168.719 65.5761 157.522 69.1274C157.347 69.1801 157.171 69.2329 156.982 69.3052C162.032 66.3779 167.234 63.6912 172.697 61.6292ZM160.243 69.1669C165.625 67.7831 170.886 67.475 176.271 68.9392C180.759 70.1621 184.853 72.2792 188.583 75.0297C189.181 75.4676 189.75 75.9284 190.318 76.3891C189.803 76.2736 189.304 76.2395 188.809 76.3063C188.822 76.2867 188.832 76.2509 188.829 76.2346C188.896 76.0682 188.639 75.968 188.571 76.1344C188.535 76.2095 188.516 76.2813 188.48 76.3563C187.038 76.5992 185.672 77.4707 184.486 78.3904C180.861 75.9915 176.84 74.2326 172.464 73.3938C161.962 71.3606 151.147 74.2914 141.759 78.9836C136.695 81.5069 131.925 84.5636 127.244 87.721C126.08 88.5006 124.838 89.2283 123.746 90.1118C122.972 90.7271 122.94 90.649 123.176 90.3126C127.366 86.2379 132.101 82.7642 137.119 79.7588C139.717 78.1955 142.36 76.5212 145.07 75.1726C148.147 73.6305 151.363 72.518 154.361 70.8393C156.353 70.2133 158.31 69.6624 160.243 69.1669ZM122.629 91.3735C135.258 82.698 148.863 73.4846 164.764 73.215C171.978 73.0859 178.427 75.1982 183.976 78.7995C183.8 78.937 183.641 79.0711 183.482 79.2053C183.293 79.3624 183.383 79.7172 183.64 79.7326C186.117 79.9066 186.224 82.6826 185.093 84.2865C180.617 81.0432 175.523 78.7569 169.936 78.2155C160.337 77.2872 150.536 79.5367 141.755 83.2915C132.566 87.2139 125.122 93.3756 118.631 100.886C114.474 105.701 110.356 110.541 105.865 115.05C103.696 117.221 101.461 119.321 99.1739 121.33C98.1668 122.213 97.2152 123.119 96.2636 124.025C96.2178 123.966 96.1524 123.895 96.1065 123.836C97.3539 122.717 98.585 121.602 99.7474 120.399C103.699 116.322 106.827 111.615 110.073 106.987C113.448 102.162 116.729 97.2887 120.689 92.9215C121.215 92.3397 121.761 91.7708 122.309 91.2182C122.284 91.3421 122.463 91.4751 122.629 91.3735ZM92.5582 127.645C92.3725 127.649 92.1834 127.636 91.9781 127.627C92.5073 127.062 93.079 126.538 93.5922 126.061C94.219 125.475 94.8492 124.906 95.499 124.35C95.4215 124.552 95.3277 124.758 95.2535 124.976C94.3441 125.84 93.4576 126.732 92.5582 127.645ZM82.7107 139.824C82.5554 141.059 82.5172 142.288 82.5672 143.532C81.6396 139.143 81.8023 134.362 82.1594 130.203C82.2409 129.27 82.3224 128.338 82.4202 127.403C83.1901 128.602 84.1388 129.681 85.1942 130.534C84.8267 130.728 84.5345 131.042 84.425 131.42C83.8969 133.24 83.5286 135.096 83.2646 136.964C83.017 137.913 82.8411 138.881 82.7107 139.824ZM87.5195 87.7368C87.4462 88.2096 87.5462 88.8675 87.1129 88.9048C86.9305 88.925 86.7017 88.7172 86.4859 88.4899C86.9107 87.9116 87.3519 87.3301 87.7997 86.7811C88.2052 86.2746 88.6271 85.7648 89.0685 85.268C88.9304 85.8387 88.7955 86.4257 88.6803 87.0257C88.2955 87.8841 87.927 88.7391 87.5618 89.6104C87.6086 89.0074 87.6521 88.3881 87.6989 87.7851C87.7049 87.6482 87.5484 87.6292 87.5195 87.7368ZM95.8518 68.0324C95.8367 67.4589 95.8543 66.8788 95.8914 66.3117C96.0322 66.5035 96.1697 66.679 96.3267 66.8674C96.1521 67.2591 95.9938 67.6474 95.8518 68.0324ZM89.0036 86.2816C89.0965 85.8218 89.209 85.375 89.3248 84.9445C89.5455 84.6961 89.75 84.451 89.9707 84.2025C89.6341 84.8815 89.3205 85.5897 89.0036 86.2816ZM86.7129 117.423C87.2669 116.479 87.8404 115.548 88.3944 114.605C88.4203 114.566 88.3582 114.51 88.316 114.553C87.9466 115.154 87.3724 116.831 86.5958 116.514C86.3935 116.437 86.1631 113.889 86.0772 113.55C85.9612 112.981 85.2293 111.468 85.87 111.117C86.0847 111.005 88.2309 112.552 88.5215 112.731C88.6195 112.795 88.7202 112.707 88.6807 112.596C87.5426 109.505 87.5809 106.445 88.2647 103.474C88.9891 106.616 89.5508 109.791 89.9334 113.003C90.4165 117.042 90.2937 121.103 90.6204 125.123C90.0129 125.636 89.4315 126.196 88.9349 126.754C87.2337 125.727 86.191 123.854 85.6497 121.861C84.8411 118.889 84.915 115.754 85.2825 112.729C85.3269 112.364 85.3713 111.998 85.4352 111.646C85.9207 113.531 86.3086 115.436 86.5661 117.368C86.6186 117.459 86.6903 117.478 86.7129 117.423ZM96.1427 121.099C94.7777 122.14 92.7814 123.411 90.9976 124.893C91.317 121.132 90.8404 117.125 90.3747 113.422C89.9325 109.917 89.2786 106.455 88.4293 103.033C88.8118 101.497 89.367 99.9766 89.9973 98.4917C90.8124 99.5805 91.9592 100.466 93.5025 101.051C94.5302 101.435 95.5538 101.549 96.5701 101.461C97.8527 106.761 99.1353 112.062 100.463 117.336C99.0897 118.667 97.6506 119.927 96.1427 121.099ZM88.2609 102.372C88.0924 101.711 87.9239 101.05 87.7392 100.393C87.6997 100.282 87.5173 100.302 87.5405 100.416C87.7551 101.22 87.9534 102.028 88.1484 102.819C88.0745 103.122 87.9843 103.429 87.9267 103.729C87.5421 105.588 87.389 107.501 87.6366 109.384C87.64 109.4 88.3295 111.871 88.2484 111.972C87.9629 112.319 86.3298 111.21 85.6048 110.73C85.7767 109.576 85.9813 108.415 86.1858 107.254C86.5086 105.425 86.424 103.594 86.5741 101.749C86.7558 99.6434 87.1395 97.5304 87.6634 95.4398C87.7765 95.1624 87.8863 94.8688 87.9994 94.5914C88.0865 94.3532 88.177 94.1313 88.2641 93.8932C88.4618 95.4469 88.9099 96.8987 89.7353 98.1211C89.1373 99.5146 88.6273 100.924 88.2609 102.372ZM96.9028 64.7832C96.9652 64.9231 97.0728 64.952 97.1868 64.9288C96.9474 65.4184 96.7275 65.921 96.5206 66.404C96.3274 66.1212 96.1505 65.835 95.9443 65.5718C96.0264 64.809 96.1802 64.0655 96.435 63.3184C96.4543 63.2466 96.4899 63.1715 96.5092 63.0998C96.5698 63.647 96.6662 64.2039 96.9028 64.7832ZM86.0979 88.4163C84.152 91.1016 82.4773 93.9521 81.0636 96.9191C81.2705 95.5204 81.4775 94.1218 81.6519 92.7297C82.0071 89.8934 82.5437 86.7828 81.9832 83.9465C83.3374 85.4343 84.7111 86.9351 86.0979 88.4163ZM78.1202 107.031C78.1256 107.64 78.1831 108.256 78.2928 108.878C78.1022 109.358 77.9116 109.838 77.7373 110.314C77.5921 109.767 77.4664 109.233 77.3537 108.679C77.3923 108.536 77.4146 108.396 77.4403 108.272C77.68 107.867 77.9034 107.465 78.1202 107.031ZM75.0034 127.285C73.2732 124.449 71.4775 121.542 69.1689 119.197C69.7142 119.544 70.2692 119.855 70.8372 120.146C72.2735 120.871 73.8002 121.374 75.3655 121.734C75.1666 123.589 75.0525 125.443 75.0034 127.285ZM76.8929 112.995C76.7916 112.914 76.674 112.836 76.5727 112.755C76.716 111.794 76.8952 110.841 77.0907 109.886C77.1323 109.674 77.1772 109.478 77.2189 109.266C77.3346 109.752 77.447 110.22 77.5953 110.699C77.3404 111.446 77.1085 112.222 76.8929 112.995ZM76.6486 113.961C76.565 114.3 76.4848 114.655 76.4175 114.991C76.3086 115.539 76.1997 116.087 76.1071 116.632C76.1853 115.683 76.2993 114.744 76.4297 113.802C76.4918 113.857 76.5702 113.909 76.6486 113.961ZM76.2133 112.489C75.8344 112.21 75.4588 111.948 75.0798 111.669C75.7061 110.914 76.2865 110.101 76.8311 109.277C76.5904 110.344 76.3856 111.42 76.2133 112.489ZM74.6266 115.356C74.9982 116.349 75.3081 117.371 75.5528 118.406L75.5561 118.422C75.4939 119.283 75.4676 120.153 75.4575 121.02C75.4479 121.056 75.4545 121.088 75.4449 121.124C73.8623 121.429 69.96 119.002 68.2127 117.832C69.2921 117.137 70.3257 116.384 71.2939 115.56C72.1028 114.869 72.9115 114.094 73.6907 113.257C74.0156 113.937 74.3439 114.633 74.6266 115.356ZM67.6892 118.176C70.5338 120.988 73.1655 124.42 75.0061 128.047C72.2158 124.919 69.3118 121.898 66.45 118.835C66.8924 118.592 67.325 118.385 67.6892 118.176ZM80.4894 144.82C80.1767 142.951 79.9094 141.055 79.8116 139.159C79.7006 137.198 80.0556 135.277 80.1011 133.335C80.1928 129.704 80.034 126.176 80.4157 122.554C80.4655 122.798 80.5315 123.039 80.6008 123.296C80.7361 123.794 80.9073 124.302 81.0881 124.774C80.7843 127.363 80.513 129.944 80.346 132.539C80.0681 137.004 80.0641 141.482 80.8804 145.741C80.7556 145.461 80.6308 145.181 80.5093 144.918C80.5027 144.885 80.4961 144.853 80.4894 144.82ZM94.2978 127.528C94.327 127.505 94.3596 127.498 94.3889 127.475C94.3922 127.492 94.3759 127.495 94.3792 127.511C94.3466 127.518 94.3304 127.521 94.2978 127.528ZM95.0067 127.095C95.8651 126.565 96.7202 126.017 97.5523 125.441C97.7453 125.639 97.9578 125.85 98.1507 126.048C97.1591 126.674 96.1017 127.144 94.9524 127.412C94.9813 127.304 94.994 127.2 95.0067 127.095ZM98.1637 126.029C97.9675 125.814 97.7582 125.62 97.549 125.425C99.7335 123.912 101.852 122.243 103.866 120.476C103.165 121.28 102.464 122.084 101.744 122.875C100.614 124.156 99.4415 125.226 98.1637 126.029ZM196.535 107.426C198.173 108.89 199.755 110.416 201.263 111.992C201.777 112.769 202.307 113.542 202.861 114.261C204.608 116.516 206.87 118.464 208.755 120.64C208.823 120.728 208.921 120.793 209.013 120.825C209.104 120.942 209.212 121.056 209.304 121.173C206.777 119.008 204.323 116.778 201.839 114.57C201.737 114.489 201.634 114.646 201.719 114.731C203.114 116.006 204.513 117.299 205.926 118.571C206.301 118.919 207.907 120.643 208.544 121.107C208.068 120.933 207.07 120.61 207.106 120.62C204.157 119.626 201.207 118.633 198.255 117.623C197.812 116.611 197.134 115.698 196.17 114.961C195.121 114.141 194.077 113.675 193.408 112.387C192.988 111.574 192.887 110.577 192.708 109.698C192.399 108.183 191.997 106.705 191.418 105.28C190.87 103.916 190.21 102.592 189.446 101.34C191.839 103.346 194.201 105.375 196.535 107.426ZM142.383 31.3267C146.41 31.2021 150.493 31.1848 154.497 30.9462C158.331 30.7082 162.104 30.5844 165.909 31.285C173.275 32.6512 178.448 37.7365 183.237 43.1034C185.696 45.8583 188.12 48.6035 190.765 51.1851C192.011 52.3898 193.27 53.5749 194.499 54.7829C191.222 53.2625 187.598 53.0338 183.96 53.4015C183.956 53.3853 183.969 53.3657 183.963 53.3331C181.808 48.4134 178.183 44.2678 174.108 40.8243C173.886 40.6491 173.633 40.9889 173.858 41.1804C174.087 41.3881 174.332 41.5926 174.561 41.8004C174.493 41.7973 174.428 41.8106 174.376 41.889C173.737 42.9177 173.099 43.9463 172.444 44.9783C172.431 44.9979 172.418 45.0175 172.409 45.0534C172.036 44.5528 171.662 44.0523 171.289 43.5517C171.152 43.3762 170.888 43.5824 171.013 43.7775C171.396 44.3269 171.783 44.8926 172.169 45.4583C171.745 46.206 171.295 46.9929 170.631 47.3145C170.153 46.5471 169.661 45.7993 169.199 45.0286C169.078 44.8497 168.759 45.0333 168.867 45.2317C169.307 45.9732 169.746 46.7147 170.169 47.4595C169.824 47.5128 169.403 47.4458 168.917 47.2226C168.45 47.0124 168.121 46.2314 167.619 45.9269C167.139 45.6515 166.607 45.5393 166.063 45.5314C162.895 45.4641 161.099 49.0515 159.706 51.3699C159.337 51.9708 159.02 52.578 158.761 53.2241C158.35 52.9518 157.938 52.6795 157.53 52.4234C157.471 52.3845 157.403 52.4662 157.462 52.5051C157.877 52.7937 158.291 53.0823 158.69 53.3742C158.399 54.1117 158.216 54.8781 158.18 55.6994C158.076 57.7723 159.002 59.8221 158.283 61.8677C158.231 62.0308 158.163 62.1973 158.079 62.367C158.063 62.3703 158.063 62.3703 158.05 62.3899C154.661 64.2329 151.399 66.1178 148.42 68.5558C145.57 70.8825 142.834 73.2707 139.854 75.4545C138.307 76.6003 136.744 77.7495 135.184 78.9149C131.835 81.038 128.725 83.5025 126.056 86.3858C124.825 87.5012 123.62 88.6622 122.458 89.8654C118.062 94.423 114.45 99.6688 110.782 104.807C107.789 109.012 104.607 113.203 100.944 116.866C101.401 112.279 101.854 107.676 102.343 103.083C102.391 102.65 102.294 100.177 102.663 101.322C102.996 102.374 102.909 103.782 102.998 104.883C103.232 107.701 103.399 110.516 103.447 113.338C103.454 113.455 103.647 113.484 103.64 113.366C103.673 108.866 103.413 104.425 102.678 99.9797C102.658 99.882 102.524 99.8923 102.508 99.9803C102.231 102.784 101.902 105.581 101.609 108.388C101.473 109.721 101.318 111.041 101.147 112.365C101.099 112.714 100.35 116.613 100.605 116.782C100.19 116.493 100.006 114.259 99.8446 113.63C99.5043 112.292 99.1641 110.954 98.8205 109.6C98.1171 106.894 97.4137 104.188 96.7103 101.483C98.8862 101.26 101.03 100.213 102.998 99.3041C104.007 98.8444 105.002 98.4043 106.054 98.0716C107.518 97.6038 108.309 97.1547 108.431 98.7575C108.591 100.624 108.828 102.119 109.824 103.765C109.975 104.005 110.362 103.825 110.227 103.581C109.015 101.623 108.623 99.6172 109.026 97.3478C109.048 97.2076 108.911 97.1168 108.797 97.14C104.787 97.5155 100.687 100.86 96.6377 101.209C96.5849 101.034 96.5485 100.855 96.4957 100.679C96.4725 100.565 96.2934 100.601 96.3329 100.712C96.3694 100.891 96.4221 101.067 96.4553 101.23C95.2173 101.312 93.9882 101.104 92.7705 100.454C91.6475 99.8514 90.7618 99.0821 90.107 98.198C90.4885 97.3234 90.8929 96.478 91.294 95.6164C93.9275 92.9776 96.719 89.8657 96.3468 85.8719C96.1571 83.774 94.9681 82.9308 93.8871 81.2856C93.8642 81.2564 93.8575 81.2238 93.8346 81.1946C94.6277 79.6766 95.4175 78.1423 96.2302 76.6372C96.418 76.3107 96.6189 75.9646 96.8067 75.6381C98.5044 72.8168 100.476 70.177 102.096 67.3038C103.819 64.2739 105.548 61.2765 107.539 58.3955C111.537 52.6302 116.277 47.5109 121.67 43.0215C124.66 40.5477 127.885 38.3989 130.939 35.9966C132.46 34.8052 133.951 33.552 135.443 32.2988C137.669 31.659 139.956 31.3969 142.383 31.3267ZM79.685 51.586C79.7012 51.5827 79.7338 51.5761 79.7501 51.5728C79.9032 51.5755 79.9744 51.4254 79.9382 51.331C80.1234 51.1576 80.3052 50.968 80.4903 50.7947C81.5068 49.7908 82.5069 48.7902 83.5104 47.8059C79.6385 55.1055 74.898 61.8868 69.4093 68.0743C68.3752 64.9104 70.5209 61.6248 72.5261 59.1479C74.7391 56.4421 77.2103 54.0059 79.685 51.586ZM79.1034 51.1448C77.627 51.0554 76.3767 51.3269 75.1933 52.0935C76.1997 48.209 78.4951 44.8251 82.1117 42.851C82.2483 42.7723 82.3261 42.6547 82.3092 42.4886C82.0769 40.3484 81.4802 38.3334 80.3561 36.4765C79.9727 35.8424 78.7798 34.8135 79.0642 34.1282C79.2644 33.6127 80.4888 33.3804 81.6875 33.272C85.1034 33.56 88.4907 34.0405 91.8812 34.5372C89.1174 37.2025 87.1453 40.7579 85.336 44.2802C83.2585 46.5684 81.2005 48.8696 79.1034 51.1448ZM66.0978 33.9023C58.0748 36.553 50.7342 41.4728 45.142 47.9018C33.3411 61.4788 29.2415 80.2367 30.8437 97.8508C30.4435 96.1349 30.0303 94.4385 29.5487 92.7391C29.0405 90.9095 28.5973 88.9819 28.3038 87.0408C28.4431 86.8089 28.5857 86.5934 28.7447 86.3745C28.8906 86.1752 28.5933 85.9644 28.4474 86.1637C28.3663 86.265 28.3015 86.363 28.2237 86.4805C27.9332 84.4709 27.8056 82.4282 27.8965 80.4596C28.2715 72.9732 31.9553 64.9996 35.3508 58.4413C38.7819 51.8079 42.4382 45.2813 48.8496 41.1273C54.266 37.5828 59.9207 35.1259 66.0978 33.9023ZM25.2001 94.1162C25.1507 93.9567 25.0883 93.8168 25.0388 93.6573C22.5352 84.8577 26.0579 75.5095 29.6399 67.2854C29.1294 68.5254 28.6417 69.7947 28.2063 71.0704C25.6675 78.5056 25.02 86.3188 25.2001 94.1162ZM34.0707 111.37C34.6947 109.021 35.6775 106.769 37.0161 104.683C38.0369 104.95 39.0867 105.109 40.1458 105.148C38.6592 107.756 37.4728 110.508 36.603 113.398C36.2873 114.428 35.9685 115.528 35.7995 116.613C35.1451 114.898 34.5852 113.147 34.0707 111.37ZM33.9652 111.018C33.3944 108.964 32.8821 106.864 32.399 104.741C32.2929 104.22 32.1998 103.679 32.11 103.155C32.06 102.826 32.0133 102.513 31.9633 102.184C33.4369 103.343 35.1309 104.168 36.9247 104.65C35.6022 106.649 34.6091 108.767 33.9652 111.018ZM18.9067 44.7136C21.554 42.3094 23.8296 43.5757 26.665 44.6772C28.9849 45.5784 30.9057 46.0183 33.3948 45.9185C34.6231 45.8719 35.8511 45.7406 37.0462 45.5312C34.6654 47.7455 32.2879 49.976 30.2863 52.554C26.9936 56.7853 24.5537 61.7077 23.0596 66.8615C22.8696 67.5107 22.6958 68.1565 22.5417 68.8153C22.1827 68.634 21.8172 68.5049 21.4422 68.4117C21.688 67.8699 21.95 67.3248 22.248 66.7894C22.3807 66.525 21.9598 66.3733 21.8238 66.6214C21.5292 67.1731 21.2412 67.7574 20.9695 68.3384C20.0535 68.2535 19.1909 68.5139 18.3085 68.6766C18.4834 68.3697 18.6745 68.0595 18.869 67.7656C18.9339 67.6676 18.7738 67.5475 18.709 67.6455C18.4756 67.9983 18.2422 68.351 18.0284 68.7167C17.9632 68.73 17.9144 68.7399 17.846 68.7369C16.5724 68.8944 15.3921 68.6769 14.3605 68.1069C14.4793 67.6079 14.6014 67.1252 14.7203 66.6262C14.7526 66.5349 14.6057 66.48 14.5735 66.5713C14.435 67.0573 14.3096 67.5238 14.1874 68.0065C13.7042 67.7149 13.2402 67.3515 12.8281 66.9097C11.7585 65.737 11.1508 64.3346 10.8133 62.8433C11.0606 56.1459 13.9659 49.1787 18.9067 44.7136ZM10.9523 66.2742C10.8785 65.6618 10.8535 65.0395 10.8285 64.4172C11.3816 66.0511 12.3251 67.5208 13.922 68.5353C13.9612 68.5612 14.0167 68.5838 14.0559 68.6098C13.4711 70.9841 12.9938 73.3874 12.7286 75.8323C11.8805 72.7492 11.3188 69.574 10.9523 66.2742ZM12.9824 76.6624C13.2697 73.9925 13.6646 71.3517 14.2485 68.7232C15.339 69.3321 16.4702 69.4748 17.6819 69.3468C15.6096 73.1601 14.6899 77.6374 15.6464 81.9192C15.6895 82.1309 16.0022 82.0842 15.9754 81.8692C15.4419 77.4165 15.9259 73.2144 17.9653 69.323C18.0988 69.3128 18.2291 69.2863 18.3756 69.2565C19.193 69.107 19.9486 68.9871 20.6525 69.0303C18.082 74.8102 16.9652 81.6507 18.2932 87.8409C18.172 87.6621 18.0509 87.4833 17.9297 87.3045C15.6794 83.9134 14.1096 80.3669 12.9824 76.6624ZM19.1478 89.0404C18.081 82.051 18.3548 75.4838 21.1512 69.0644C21.5718 69.1314 21.986 69.2506 22.3876 69.474C20.3109 78.5957 21.0675 88.2257 24.851 96.8156C22.9618 94.1988 20.9882 91.6671 19.1478 89.0404ZM24.0679 71.065C24.635 72.0179 24.7723 73.109 24.7831 74.3278C24.7836 74.4972 25.0022 74.5714 25.0701 74.405C25.6485 72.9985 25.213 71.4424 24.2607 70.2627C24.5852 68.9419 24.9815 67.6403 25.4333 66.3613C27.1209 61.5751 29.657 57.1248 32.9967 53.2909C34.7266 51.2939 36.6853 49.5047 38.6702 47.761C38.3463 48.3357 38.0258 48.9266 37.7182 49.4979C35.9601 52.7724 34.61 56.2182 33.0576 59.5865C32.1067 61.6622 31.1396 63.7413 30.2443 65.8397C30.266 65.5301 29.7604 65.3787 29.6084 65.7148C26.7659 71.991 23.8151 78.9844 23.3049 85.9728C22.6849 81.012 22.9444 75.9569 24.0679 71.065ZM48.2566 134.493C46.4023 132.548 44.561 130.583 42.8367 128.526C43.3995 119.797 45.5741 111.656 50.5502 104.199C50.628 104.082 50.4483 103.949 50.3705 104.066C45.6041 110.887 42.3914 119.426 42.2968 127.873C41.8681 127.35 41.4524 126.807 41.0367 126.264C38.922 123.456 37.3313 120.473 36.0856 117.352C36.238 115.269 37.0321 113.09 37.6515 111.302C38.3871 109.168 39.3283 107.128 40.3804 105.134C41.8598 105.155 43.345 104.954 44.7967 104.506C40.5806 110.282 38.5412 117.921 40.4552 124.907C40.4784 125.021 40.6412 124.988 40.618 124.874C39.6965 117.516 40.8906 110.388 45.2068 104.355C45.3663 104.305 45.5095 104.259 45.6657 104.193C47.4587 103.506 50.3852 101.723 50.7412 104.805C50.8687 105.847 50.7359 107.027 51.2996 107.964C51.7551 108.702 52.3589 109.003 53.0207 109.089C50.7564 112.958 49.0242 117.109 47.9836 121.492C47.4087 123.915 46.9061 126.527 46.9083 129.036C46.9102 130.545 47.2405 131.835 48.6376 132.534C48.7877 132.605 48.9237 132.357 48.7866 132.266C46.628 130.908 47.4599 127.415 47.7525 125.355C48.0612 123.206 48.523 121.06 49.1186 118.989C50.1103 115.531 51.5262 112.242 53.2978 109.117C54.22 109.15 55.2292 108.86 56.1312 108.71C60.7915 107.948 59.9833 112.64 62.2434 115.079C63.6301 116.56 65.808 116.931 67.6267 116.12C67.7503 116.061 67.6684 115.908 67.5381 115.934C65.0254 116.751 62.7218 115.847 61.5079 113.465C61.0289 112.528 60.8297 111.467 60.367 110.527C59.76 109.294 58.975 108.436 57.5568 108.216C56.6472 108.079 55.752 108.346 54.8596 108.46C54.4134 108.517 54.0223 108.512 53.6702 108.448C53.8873 108.098 54.0848 107.736 54.3019 107.387C54.3797 107.269 54.2 107.136 54.1222 107.254C53.8759 107.626 53.6491 108.011 53.419 108.38C52.1079 108.02 51.4619 106.846 51.3358 105.226C51.2536 104.073 51.1931 102.61 49.9109 102.142C49.2486 101.887 48.6335 102.114 48.0217 102.357C47.2863 102.66 46.6098 103.001 45.9298 103.326C45.9591 103.303 45.9688 103.267 45.998 103.244C46.0954 103.139 45.9157 103.006 45.8183 103.111C45.7113 103.252 45.588 103.395 45.4809 103.536C44.9213 103.785 44.3551 104.002 43.7235 104.148C42.7207 104.386 41.6913 104.494 40.6617 104.517C41.0179 103.851 41.3936 103.198 41.7727 102.561C41.7986 102.522 41.7398 102.483 41.7138 102.522C41.2697 103.172 40.8484 103.852 40.4434 104.527C39.3747 104.525 38.3315 104.398 37.2977 104.15C37.3755 104.033 37.4663 103.896 37.5441 103.778C37.57 103.739 37.5079 103.684 37.4657 103.726C37.3749 103.863 37.2842 104.001 37.1901 104.121C36.2802 103.9 35.3863 103.59 34.5376 103.169C33.5584 102.69 32.6275 102.032 31.7743 101.256C30.5526 92.84 30.7414 84.2723 32.4722 75.9502C35.9821 59.1267 46.1009 43.4504 62.2355 36.4182C66.1593 34.7037 70.3619 33.5259 74.6254 32.9801C76.3653 32.9481 78.1055 33.0008 79.8231 33.1089C79.1885 33.3229 78.5767 33.5661 77.9586 33.8615C77.7732 33.9502 77.6893 34.2046 77.8431 34.3768C79.4915 36.1439 81.4364 38.868 81.4452 41.4097C81.4571 42.9673 79.0197 43.9044 77.9578 44.9345C75.6683 47.1811 74.1376 50.2397 73.7348 53.4248C73.6554 54.0344 74.3826 54.1916 74.73 53.8157C75.7039 52.7696 77.0894 51.9958 78.535 51.6845C77.73 52.5606 76.9379 53.417 76.1132 54.2802C72.3731 58.2295 65.1155 63.641 68.3762 69.9125C68.6025 70.3581 69.2682 70.6296 69.6937 70.2208C75.7247 64.4485 81.1116 58.0105 85.6166 50.9889C88.1025 47.1253 90.5141 41.5643 94.2955 38.234C95.2127 37.742 96.166 37.3445 97.1818 37.0868C103.687 35.4742 110.097 38.561 116.598 38.5093C117.021 38.5079 117.458 38.4868 117.878 38.4691C114.142 41.6885 110.533 45.0345 107.055 48.5234C103.662 51.9273 99.9627 55.4105 97.5105 59.6063C97.2838 59.9916 97.0603 60.3932 96.8728 60.8044C96.676 59.5049 96.2483 58.3202 94.9438 57.9923C94.2296 57.8155 93.6636 58.1173 93.0784 58.4908C91.4852 59.4934 90.0768 61.1536 88.7323 62.4617C85.1339 65.9413 81.7743 69.6775 78.676 73.6148C78.5259 73.5436 78.3757 73.4725 78.2093 73.4046C78.118 73.3723 78.0598 73.5029 78.1544 73.5514C78.2883 73.6259 78.4351 73.6808 78.569 73.7553C77.0863 75.6341 75.6658 77.5681 74.304 79.541C74.1192 79.7991 74.4427 80.0554 74.6833 79.9047C75.8082 79.1839 76.8996 79.1313 77.8849 79.4733C79.0036 80.7208 80.1353 81.9487 81.254 83.1962C81.333 83.4175 81.3957 83.6422 81.4421 83.8701C81.9318 86.0257 81.64 88.3403 81.439 90.5178C81.2192 92.9365 80.9115 95.3392 80.6037 97.7419C79.6432 99.8535 78.8003 102.043 78.0976 104.255C77.8808 104.689 77.6673 105.139 77.4309 105.561C77.269 105.848 77.1103 106.151 76.9321 106.442C76.5345 102.657 77.0948 98.8293 78.6919 95.1806C78.6886 95.1643 78.6723 95.1676 78.6723 95.1676C76.9938 98.8329 76.3168 102.837 76.7443 106.769C75.8824 108.199 74.9193 109.548 73.8549 110.816C73.3943 110.469 72.9336 110.122 72.473 109.775C72.0711 109.467 71.6396 110.012 71.9016 110.383C72.2422 110.89 72.5666 111.4 72.8747 111.914C72.2059 112.627 71.5109 113.294 70.7767 113.935C69.5226 115.022 68.164 116.01 66.7234 116.846C65.7088 117.443 64.5145 117.906 63.6703 118.756C63.417 119.012 63.2159 119.273 63.0669 119.541C63.1049 119.228 63.1267 118.918 63.181 118.602C63.2063 118.393 62.8934 118.355 62.8517 118.567C62.3041 122.29 62.1835 126.028 62.5548 129.768C62.0537 129.972 61.5297 130.146 61.022 130.318C61.0057 130.321 60.9894 130.324 60.9568 130.331C60.4654 130.499 59.9999 130.627 59.6549 130.765C59.1798 130.93 58.6883 131.098 58.2099 131.246C58.2192 131.126 58.2156 131.025 58.2249 130.904C58.2274 130.666 57.8786 130.618 57.8598 130.86C57.8441 131.032 57.8414 131.186 57.8257 131.358C57.7151 131.398 57.6011 131.421 57.4742 131.464C57.2738 130.063 57.2649 128.437 57.2646 128.352C57.2566 126.981 57.3138 125.595 57.4589 124.226C57.7613 121.214 58.4355 118.279 59.4129 115.418C59.4871 115.199 59.1576 115.08 59.0834 115.299C57.551 119.765 56.7525 124.421 56.8666 129.146C56.8708 129.416 56.8616 130.537 56.999 131.628C56.3707 131.79 55.7261 131.955 55.0748 132.088C54.6826 131.744 54.2904 131.4 53.9015 131.072C53.6956 130.893 53.3869 131.126 53.4203 131.373C53.454 131.706 53.5041 132.035 53.5574 132.38C53.1112 132.437 52.5899 132.458 52.0623 132.532C50.9763 129.446 51.8888 124.767 52.2647 122.282C52.9242 117.943 54.2229 113.745 56.0208 109.75C56.066 109.639 55.9029 109.587 55.8544 109.682C53.4374 114.634 51.9339 119.908 51.4413 125.401C51.2656 127.369 50.8589 130.369 51.616 132.589C50.9778 132.702 50.392 132.906 49.9731 133.347C49.2362 134.141 49.3145 135.109 49.6925 136.049C49.2409 135.497 48.7341 135.007 48.2566 134.493ZM57.8241 132.766C57.778 132.623 57.7285 132.463 57.6954 132.3C57.7442 132.291 57.7931 132.281 57.8419 132.271C57.8392 132.424 57.8235 132.597 57.8241 132.766ZM55.9587 141.76C54.9256 140.766 53.8666 139.812 52.8238 138.854C52.4572 138.386 52.1069 137.915 51.7696 137.424C51.4814 137.008 50.798 136.316 50.7637 135.814C50.4427 135.32 50.6595 134.886 51.4467 134.505C51.5918 134.052 51.8318 133.732 52.1309 133.535C52.5635 134.244 53.1682 134.799 54.0166 135.135C54.1079 135.167 54.1598 135.089 54.1432 135.008C54.8903 138.094 56.1361 141.215 57.9822 143.62C57.3156 143.094 56.6943 142.458 55.9587 141.76ZM54.1465 135.024C54.1432 135.008 54.1203 134.978 54.1007 134.965C53.4152 134.596 52.9147 134.054 52.5409 133.384C52.7037 133.351 52.8895 133.347 53.0948 133.356C53.3194 133.293 53.544 133.23 53.7686 133.168C53.8587 133.777 53.9847 134.395 54.1465 135.024ZM54.2566 131.983C54.3383 132.051 54.433 132.1 54.5146 132.168C54.4495 132.181 54.3681 132.198 54.303 132.211C54.2864 132.13 54.2698 132.048 54.2566 131.983ZM58.923 144.327C59.0108 144.259 59.056 144.148 58.9936 144.008C58.0842 142.039 56.9276 140.189 56.1092 138.168C55.4093 136.479 54.9211 134.747 54.4947 132.986C55.3868 132.787 56.3019 132.618 57.2103 132.416C57.3459 132.999 57.5496 133.5 57.8469 133.711C58.005 137.986 59.3761 142.472 62.303 145.521C61.9834 145.451 61.6801 145.377 61.3605 145.306C60.3822 145.082 59.6185 144.745 58.923 144.327ZM63.1052 145.714C63.1116 145.662 63.0983 145.597 63.0525 145.538C60.602 141.747 58.7974 138.13 58.3621 133.826C58.4924 133.8 58.616 133.741 58.7655 133.643C58.8858 133.567 58.758 133.356 58.6344 133.415C58.5271 133.471 58.4294 133.491 58.3381 133.458C58.3007 133.025 58.283 132.605 58.2749 132.149C58.4832 132.089 58.6916 132.03 58.8966 131.954C59.4043 131.783 59.8924 131.599 60.3806 131.415C59.9876 132.733 60.6543 134.259 61.1248 135.57C62.2898 138.877 63.7737 142.085 65.5308 145.136C65.8389 145.649 66.1503 146.179 66.4713 146.674C66.3049 146.606 66.1547 146.535 65.9916 146.483C65.0456 146.167 64.0802 145.923 63.1052 145.714ZM83.4568 158.646C82.5901 157.721 81.7204 156.863 80.8247 156.045C80.8214 156.029 80.8018 156.016 80.7985 156C80.7494 155.925 80.6906 155.886 80.6188 155.867C79.7232 155.049 78.7853 154.273 77.8182 153.52C77.1207 152.509 76.4394 151.495 75.7744 150.477C74.2084 148.032 72.7464 145.515 71.3592 142.949C68.9782 138.499 66.9354 133.879 65.1791 129.166C65.3612 129.061 65.5466 128.972 65.7287 128.868C65.8523 128.809 65.979 128.681 65.9654 128.531C65.9718 128.479 65.9618 128.43 65.9486 128.365C70.5197 135.743 75.0745 143.125 79.8244 150.382C79.9193 150.515 80.0432 150.541 80.1669 150.482C80.203 150.576 80.2425 150.687 80.2787 150.781C81.2399 153.587 82.3865 156.304 83.7022 158.935C83.6498 158.844 83.5452 158.747 83.4568 158.646ZM92.7678 170.401C92.269 169.366 91.7831 168.312 91.1476 167.356C90.057 165.747 88.745 164.217 87.3746 162.732C84.494 157.994 82.2376 152.824 81.0035 147.429C81.1808 147.8 81.3547 148.154 81.5482 148.522C82.4385 151.562 83.8236 154.451 85.9377 157.09C85.9639 157.135 86.0031 157.161 86.0423 157.187C89.3206 163.879 94.4822 169.577 98.0307 176.18C98.69 177.419 99.3037 178.685 99.8848 179.957C97.7651 176.624 95.2226 173.547 92.7678 170.401ZM128.61 201.291C125.485 194.432 125.759 187.034 127.03 179.619C128.26 172.501 129.685 164.428 135.24 159.313C135.467 159.097 135.166 158.7 134.922 158.919C129.316 164.029 127.766 171.992 126.458 179.142C125.528 184.232 124.921 189.833 125.881 195.047C122.046 189.536 122.486 181.867 123.428 175.503C124.463 168.51 126.832 161.821 130.424 155.731C131.426 156.901 132.553 157.943 133.847 158.884C133.867 158.897 133.879 158.877 133.86 158.864C132.586 157.937 131.438 156.882 130.437 155.712C130.502 155.614 130.547 155.503 130.612 155.405C130.752 155.173 130.408 154.904 130.256 155.155C130.217 155.214 130.182 155.289 130.143 155.348C129.151 154.142 128.322 152.819 127.659 151.394C127.876 151.044 128.077 150.698 128.294 150.349C128.385 150.212 128.166 150.053 128.075 150.19C127.881 150.484 127.706 150.791 127.512 151.085C126.976 149.871 126.545 148.586 126.253 147.237C126.25 147.221 126.234 147.224 126.237 147.241C126.529 148.589 126.96 149.875 127.499 151.104C123.325 157.923 119.828 165.231 118.135 173.071C116.701 179.687 115.337 189.563 121.177 194.512C121.259 194.58 121.386 194.453 121.317 194.365C115.742 188.887 117.246 178.864 118.88 171.986C120.611 164.665 123.814 157.823 127.656 151.378C128.319 152.803 129.145 154.11 130.14 155.332C126.297 161.693 123.702 168.766 122.746 176.151C121.924 182.439 121.377 190.911 126.089 195.903C126.473 197.622 127.033 199.289 127.811 200.86C124.863 199.459 121.984 197.892 119.221 196.148C116.008 194.106 112.571 192.466 109.494 190.26C108.178 187.713 108.959 183.553 109.133 181.16C109.401 177.647 109.823 174.135 110.44 170.669C111.606 164.073 112.828 155.668 117.833 150.766C117.959 150.639 117.779 150.421 117.653 150.548C112.06 155.808 110.792 165.07 109.63 172.275C108.884 176.853 108.362 181.538 108.339 186.172C108.327 187.361 108.4 188.635 108.795 189.742C105.175 186.951 103.512 183.034 101.511 179.032C101.196 178.401 100.868 177.79 100.537 177.162C100.277 171.89 100.598 166.636 101.858 161.496C103.178 156.157 105.219 150.689 109.406 146.937C109.536 146.826 109.372 146.605 109.226 146.719C104.964 150.351 102.799 155.624 101.435 160.921C100.146 165.915 99.6162 171.058 99.9989 176.186C99.0907 174.557 98.1695 172.947 97.3068 171.291C97.3313 167.081 97.4864 162.929 98.3551 158.784C99.2048 154.796 100.398 148.245 104.451 146.25C104.636 146.161 104.508 145.865 104.323 145.954C100.549 147.74 99.303 153.029 98.3381 156.702C97.1805 161.177 96.5551 165.933 96.923 170.572C96.4703 169.681 96.0338 168.786 95.6428 167.866C93.9871 163.98 92.5856 160.094 91.1545 156.147C90.9899 155.671 90.8058 155.183 90.6412 154.708C91.1111 150.187 92.3284 146.005 94.8631 142.131C95.8449 143.373 97.2031 144.131 98.7199 144.585C94.2005 150.287 92.4803 157.911 94.6422 164.949C94.6588 165.031 94.802 164.985 94.7854 164.903C93.1707 157.805 94.5789 150.396 99.0786 144.681C100.439 145.032 101.905 145.157 103.31 145.143C106.034 145.114 109.031 144.097 110.962 146.586C112.183 148.169 112.916 149.851 115.01 150.391C117.984 151.176 121.276 149.523 122.126 146.535C122.151 146.411 121.985 146.343 121.943 146.47C121.126 148.62 118.964 149.908 116.679 149.848C114.326 149.784 113.21 148.299 111.985 146.53C109.808 143.413 107.331 144.155 103.932 144.287C102.518 144.337 101.052 144.297 99.653 144.005C99.7082 143.943 99.7471 143.884 99.8023 143.822C99.9386 143.659 99.6805 143.474 99.5443 143.637C99.4631 143.738 99.382 143.84 99.3009 143.941C98.802 143.822 98.3256 143.648 97.8589 143.438C96.7591 142.949 95.9681 142.229 95.4047 141.377C95.4436 141.318 95.4954 141.24 95.5343 141.181C95.5992 141.083 95.462 140.992 95.3939 141.074C95.3679 141.113 95.3257 141.155 95.3031 141.211C94.4446 139.826 94.1583 138.087 94.1033 136.317C94.0694 134.985 94.1169 133.635 94.2361 132.305C94.7146 132.157 95.1864 131.976 95.6646 131.743C99.1293 130.105 101.877 127.613 104.073 124.487C106.43 121.158 108.209 117.404 110.962 114.351C116.659 108.02 123.422 103.014 130.903 99.0323C132.584 98.1304 134.25 97.2318 135.912 96.3169C136.696 96.1741 137.485 96.0476 138.279 95.9536C141.755 95.5344 144.908 96.2828 146.175 99.8402C146.488 100.709 146.506 101.468 147.566 101.592C150.154 101.896 152.921 97.4154 154.183 95.7002C155.951 93.3056 158.14 91.2321 160.646 90.3827C160.816 90.6363 161.003 90.8866 161.219 91.1139C161.392 91.2991 161.73 91.1285 161.625 90.8616C161.527 90.6273 161.415 90.4127 161.3 90.1817C162.915 89.7851 164.665 89.8866 166.535 90.7438C166.819 90.8894 167.103 91.0351 167.384 91.1645C168.004 91.4621 168.336 90.5127 167.762 90.1888C166.864 89.6933 165.898 89.3643 164.923 89.1558C164.812 89.1106 164.705 89.0816 164.594 89.0364C164.502 89.0041 164.421 89.0207 164.359 89.0502C163.156 88.8881 161.944 88.9314 160.779 89.2026C160.615 88.8969 160.451 88.5911 160.336 88.2754C160.023 87.4912 159.805 86.6707 159.685 85.8304C163.729 85.7872 167.578 86.9536 171.364 88.6416C170.835 88.5457 170.291 88.4531 169.753 88.393C169.717 88.3833 169.727 88.4322 169.743 88.4289C170.353 88.5082 170.95 88.6072 171.55 88.7225C173.08 89.4113 174.614 90.2011 176.136 91.0106C178.953 92.5227 181.426 94.5118 183.874 96.54C183.871 96.6085 183.871 96.6932 183.868 96.7617C183.859 96.967 184.156 97.0083 184.198 96.7964C184.832 97.3286 185.466 97.8609 186.116 98.3898C185.639 99.1311 184.934 99.58 183.799 99.2515C182.302 98.8102 180.875 97.1336 179.572 96.3137C177.028 94.7289 174.268 93.5783 171.317 93.0768C170.808 92.9939 170.563 93.7051 170.962 93.997C171.416 94.3115 171.857 94.6457 172.282 94.9831C172.523 95.1713 172.839 94.9714 172.89 94.7236C174.88 95.5053 176.796 96.421 178.576 97.6694C180.275 98.8498 181.872 100.865 183.969 101.336C185.85 101.75 187.063 100.961 187.704 99.6943C188.171 100.074 188.622 100.457 189.09 100.837C189.617 101.679 190.102 102.563 190.539 103.458C191.481 105.42 192.14 107.49 192.558 109.626C192.83 111.046 193.027 112.43 194.063 113.525C194.95 114.464 196.186 114.958 197.047 115.936C197.423 116.368 197.744 116.862 197.987 117.389C197.387 117.189 196.786 116.989 196.186 116.789C196.023 116.738 195.936 116.976 196.083 117.031C196.758 117.267 197.453 117.515 198.128 117.751C198.372 118.362 198.537 119.007 198.604 119.672C198.722 120.75 198.683 121.809 198.563 122.885C198.156 122.798 197.748 122.712 197.327 122.645C197.22 122.616 197.204 122.788 197.312 122.817C197.719 122.904 198.13 123.007 198.525 123.113C198.315 124.58 197.952 126.045 197.526 127.454C197.485 127.581 197.521 127.675 197.625 127.773C199.868 129.877 202.886 130.212 205.647 131.278C208.241 132.276 210.013 134.153 210.52 136.559C209.036 136.099 207.536 135.726 206.029 135.405C205.941 135.389 205.919 135.529 206.01 135.562C207.556 135.908 209.082 136.327 210.573 136.82C210.703 137.624 210.69 138.475 210.537 139.388C209.741 139.312 208.953 139.354 208.185 139.578C208.041 139.625 208.071 139.856 208.215 139.81C208.986 139.602 209.729 139.586 210.479 139.688C210.482 139.704 210.482 139.704 210.469 139.724C210.242 140.771 209.834 141.769 209.212 142.625C209.104 142.596 209.009 142.548 208.902 142.519C208.775 142.477 208.697 142.679 208.824 142.721C208.899 142.757 208.987 142.772 209.062 142.808C208.715 143.269 208.306 143.674 207.835 144.025C207.672 144.142 207.503 144.228 207.321 144.333C207.249 144.313 207.191 144.274 207.135 144.252C207.06 144.216 207.018 144.343 207.093 144.379C207.113 144.392 207.149 144.402 207.168 144.415C206.407 144.756 205.505 144.991 204.996 145.569C204.733 145.86 204.636 146.134 204.595 146.431C204.334 146.399 204.057 146.371 203.799 146.355C203.747 146.349 203.731 146.437 203.783 146.443C204.057 146.455 204.321 146.503 204.582 146.535C204.573 146.825 204.636 147.134 204.725 147.489C205.132 149.153 206.252 150.909 207.203 152.496C206.027 152.549 204.844 152.654 203.675 152.824C196.969 153.782 190.29 155.787 183.852 157.894C177.14 160.075 170.538 162.707 164.142 165.688C161.246 167.041 158.264 168.547 155.386 170.235C154.93 169.581 154.148 169.402 153.317 169.316C152.401 169.232 152.12 169.102 151.368 168.407C150.806 167.895 150.387 167.336 149.912 166.754C149.003 165.616 148.073 164.466 147.163 163.329C147.091 163.225 146.932 163.359 147.017 163.443C147.845 164.512 148.654 165.569 149.482 166.638C150.195 167.561 150.836 169.041 151.751 169.788C151.976 169.979 152.277 170.122 152.573 170.163C153.183 170.242 154.36 169.443 154.689 170.563C154.68 170.599 154.657 170.654 154.648 170.69C153.893 171.149 153.155 171.605 152.424 172.093C152.424 172.093 152.407 172.096 152.404 172.08C152.264 171.973 152.026 172.14 152.108 172.293C148.272 174.854 144.763 177.857 142.019 181.451C142.193 177.974 142.555 174.509 143.296 170.983C143.373 170.612 142.783 170.545 142.706 170.917C141.879 174.765 141.215 178.834 140.988 182.882C139.827 184.594 138.846 186.438 138.081 188.425C137.548 189.806 137.172 191.205 136.929 192.594C136.812 191.939 136.712 191.281 136.612 190.624C136.244 187.901 136.095 185.167 136.164 182.423C136.215 180.344 136.959 166.508 140.233 167.266C140.429 167.311 140.516 166.988 140.317 166.927C137.965 166.286 137.392 170.134 137.026 171.667C135.943 176.092 135.454 180.685 135.567 185.241C135.653 188.326 135.782 191.878 136.666 194.97C136.5 198.565 137.401 202.078 139.589 205.245C135.803 204.303 132.148 202.927 128.61 201.291ZM238.443 225.324C235.752 227.432 231.719 228.609 228.443 229.344C224.875 230.138 221.307 230.186 217.721 230.73C211.146 231.746 204.296 233.497 197.621 233.194C196.458 233.142 195.372 232.974 194.339 232.726C190.715 224.256 191.684 214.19 195.331 205.868C195.47 205.551 194.971 205.348 194.832 205.664C192.668 210.531 191.474 215.742 191.457 221.07C191.45 224.87 191.882 228.987 193.51 232.488C192.522 232.214 191.553 231.869 190.577 231.491C190.518 231.452 190.443 231.416 190.385 231.378C189.722 230.953 189.062 230.545 188.386 230.14C188.294 229.768 188.198 229.381 188.089 229.013C187.973 228.359 187.934 227.671 187.883 227.003C187.781 225.752 187.728 224.491 187.711 223.24C187.659 220.571 187.813 217.912 188.172 215.261C188.756 210.886 189.603 205.135 193.668 202.612C194.768 204.355 196.22 205.823 197.045 207.791C197.607 209.135 197.98 210.551 198.187 211.985C198.32 212.89 198.272 213.9 198.519 214.783C196.67 219.941 194.139 230.579 200.483 232.34C200.59 232.369 200.74 232.355 200.802 232.241C201.21 231.582 201.654 230.932 202.085 230.301C202.176 230.164 201.977 230.018 201.867 230.142C201.5 230.59 200.878 231.7 200.138 231.647C199.242 231.575 198.416 230.183 198.061 229.442C197.297 227.851 197.209 226.003 197.229 224.27C197.258 221.246 197.805 218.269 198.746 215.398C198.845 215.632 198.972 215.843 199.142 216.012C199.976 216.86 200.203 216.39 200.918 217.736C201.656 219.112 201.22 219.472 201.365 220.85C201.419 221.365 201.567 221.843 201.81 222.286C202.026 222.683 202.301 223.034 202.619 223.342C202.087 225.977 201.712 229.801 203.765 229.722C205.009 229.672 205.803 227.238 206.266 226.432C206.567 225.913 206.849 225.381 207.153 224.878C207.323 224.877 207.505 224.857 207.671 224.84C207.72 224.83 207.821 224.826 207.951 224.8C208.265 226.008 208.442 227.294 208.691 228.516C208.721 228.662 208.861 228.769 209.008 228.739C210.089 228.553 210.902 228.048 211.452 227.089C211.579 226.876 211.321 226.691 211.155 226.878C210.739 227.335 210.107 228.142 209.422 227.858C208.867 227.632 208.927 227.094 208.768 226.482C208.729 226.286 208.673 226.094 208.633 225.899C208.702 226.072 208.862 226.192 209.071 226.217C210.684 226.397 212.368 226.258 213.901 225.793C214.243 226.724 215.321 227.437 216.473 227.016C218.192 226.378 219.802 225.541 221.287 224.51C221.662 224.434 222.039 224.374 222.421 224.33C224.408 224.18 226.225 224.946 228.188 225.174C229.472 225.319 231.078 224.297 231.077 222.873C231.084 222.074 231.025 221.289 230.873 220.54C231.772 220.374 232.562 219.925 233.106 218.933C233.352 218.476 232.917 217.92 232.467 217.876C231.496 217.768 230.161 218.125 229.341 217.512C228.56 216.925 227.108 217.203 226.828 218.244C226.725 218.655 226.622 219.066 226.539 219.49C225.936 219.443 225.31 219.452 224.695 219.509C224.501 219.226 224.233 218.993 223.839 218.886C221.816 218.281 219.752 217.887 217.643 217.689C216.591 217.598 215.623 218.507 215.809 219.588C216.274 222.122 214.264 223.328 212.084 224.111C212.097 224.092 212.094 224.075 212.106 224.056C212.165 223.925 212.132 223.762 212.04 223.645C211.863 223.444 211.703 223.324 211.537 223.256C211.595 223.041 211.424 222.787 211.161 222.909C210.975 222.997 210.81 223.099 210.66 223.197C210.579 223.214 210.478 223.217 210.38 223.237C209.686 223.328 208.888 223.49 208.068 223.623C208.044 223.509 208.021 223.395 207.998 223.281C207.965 223.118 207.727 223.031 207.643 223.201C207.526 223.377 207.426 223.55 207.312 223.743C205.706 223.934 204.087 223.891 203.05 222.881C203.156 222.317 203.261 221.753 203.419 221.195C203.464 220.999 203.183 220.87 203.122 221.069C203.038 221.324 202.89 221.845 202.752 222.501C202.406 222.046 202.153 221.47 202.013 220.701C201.804 219.591 202.31 218.08 201.548 217.083C201.41 216.907 201.182 216.784 201.048 216.625C200.066 216.384 199.334 215.787 198.868 214.83C199.029 214.374 199.194 213.933 199.359 213.493C199.446 213.254 199.097 213.122 198.99 213.347C198.877 213.625 198.754 213.938 198.635 214.267C198.571 213.873 198.541 213.473 198.51 213.072C198.314 211.196 197.989 209.346 197.383 207.536C196.761 205.73 195.742 204.14 194.996 202.392C193.347 198.455 195.775 194.807 195.435 190.806C195.401 190.389 194.823 190.049 194.446 190.278C193.175 191.029 191.632 191.53 190.062 191.9C190.28 191.72 190.498 191.54 190.732 191.357C190.878 191.242 190.698 191.024 190.552 191.139C190.152 191.424 189.759 191.741 189.379 192.039C188.044 192.311 186.676 192.505 185.402 192.662C186.003 192.031 186.62 191.397 187.26 190.792C187.402 190.661 187.219 190.427 187.06 190.561C186.355 191.179 185.693 191.84 185.03 192.501C185.265 191.656 185.497 190.795 185.748 189.947C186.041 189.802 186.334 189.658 186.63 189.53C191.652 187.134 196.828 185.486 202.111 184.038C202.992 184.367 203.844 184.889 204.711 185.645C207.06 187.693 208.319 190.71 210.961 192.529C213.13 194.02 216.154 194.965 218.553 193.425C220.725 192.016 220.926 189.839 221.832 187.789C222.668 188.399 223.393 188.964 223.955 189.392C224.674 191.924 226.314 193.897 227.762 196.179C229.678 199.181 231.338 202.336 232.78 205.586C233.43 207.031 234.054 208.43 235.013 209.727C236.048 211.144 237.26 212.271 237.986 213.92C239.444 217.252 241.735 222.755 238.443 225.324ZM202.985 223.725C203.651 224.251 204.458 224.629 205.273 224.803C205.733 224.896 206.199 224.936 206.658 224.944C206.454 225.274 206.263 225.585 206.059 225.914C205.751 226.401 205.443 226.888 205.135 227.374C204.649 228.151 204.719 228.663 203.688 228.262C202.82 227.913 202.947 227.87 202.899 227.049C202.857 226.346 202.832 225.639 202.875 224.935C202.893 224.524 202.931 224.126 202.985 223.725ZM210.987 224.385C211.016 224.447 211.075 224.486 211.134 224.525C211.153 224.538 211.17 224.535 211.173 224.551C210.965 224.61 210.743 224.689 210.535 224.749C210.616 224.647 210.681 224.549 210.762 224.448C210.856 224.412 210.922 224.399 210.987 224.385ZM208.381 224.831C208.613 224.801 208.893 224.761 209.189 224.717C209.03 224.936 208.858 225.175 208.706 225.426C208.628 225.544 208.606 225.684 208.613 225.801C208.53 225.479 208.464 225.153 208.381 224.831Z" fill="#9A8979" fill-opacity="0.4"/>
<path d="M200.185 128.102C203.828 129.174 207.404 130.498 210.838 132.122C212.715 133.012 214.543 133.996 216.339 135.072C217.129 135.538 217.909 136.041 218.674 136.546C219.105 136.832 219.539 137.133 219.974 137.435C221.166 138.21 220.8 138.08 218.917 137.074C218.832 136.989 218.685 137.104 218.77 137.188C219.497 138.091 220.29 138.405 221.433 138.359C221.619 138.355 221.651 138.094 221.526 137.983C215.299 133.215 207.823 129.887 200.266 127.916C200.142 127.89 200.061 128.076 200.185 128.102Z" fill="#9A8979" fill-opacity="0.4"/>
<path d="M90.8646 77.2726C89.0424 74.2352 85.9616 71.9289 82.7699 70.493C82.5839 70.4122 82.4578 70.7091 82.6438 70.79C85.9728 72.3166 88.3365 74.5994 90.5622 77.4528C90.6767 77.5991 90.9662 77.4384 90.8646 77.2726Z" fill="#9A8979" fill-opacity="0.4"/>
<path d="M92.6551 101.802C93.3112 107.773 93.9509 113.747 94.7047 119.698C94.7249 119.881 95.0049 119.841 94.9848 119.658C94.3613 113.681 93.6401 107.723 92.9352 101.762C92.9117 101.563 92.6349 101.62 92.6551 101.802Z" fill="#9A8979" fill-opacity="0.4"/>
<path d="M113.468 151.317C111.51 151.614 110.414 153.058 109.605 154.749C108.208 157.713 107.362 161.056 106.565 164.219C105.025 170.315 104.139 176.871 105.656 183.074C105.696 183.269 106.012 183.239 105.985 183.024C105.158 177.546 105.338 172.185 106.473 166.765C107.044 164.071 107.79 161.41 108.612 158.783C109.44 156.105 110.254 152.107 113.494 151.532C113.641 151.503 113.614 151.288 113.468 151.317Z" fill="#9A8979" fill-opacity="0.4"/>
<path d="M123.006 150.189C118.326 154.517 116.367 161.885 115.28 167.956C114.007 175.032 114.234 182.226 116.024 189.187C116.054 189.333 116.286 189.303 116.256 189.157C114.914 182.732 114.578 176.086 115.527 169.585C116.453 163.224 118.36 155.018 123.189 150.423C123.329 150.276 123.149 150.058 123.006 150.189Z" fill="#9A8979" fill-opacity="0.4"/>
<path d="M130.537 184.689C130.771 181.589 131.229 178.511 131.9 175.475C132.551 172.511 133.501 165.517 137.682 165.565C137.904 165.571 137.951 165.222 137.714 165.22C134.617 165.087 133.289 168.308 132.529 170.819C131.211 175.174 130.38 179.668 129.978 184.192C129.615 188.403 129.467 192.842 130.133 197.031C130.53 199.561 131.543 202.204 134.256 202.872C134.416 202.908 134.48 202.64 134.32 202.605C131.238 201.622 130.782 197.967 130.557 195.198C130.284 191.692 130.266 188.186 130.537 184.689Z" fill="#9A8979" fill-opacity="0.4"/>
<path d="M183.502 47.815C182.911 45.6631 182.164 43.5768 181.43 41.471C181.338 41.1845 180.921 41.388 181.01 41.6582C181.725 43.7511 182.419 45.831 183.277 47.8777C183.32 48.0047 183.528 47.9453 183.502 47.815Z" fill="#9A8979" fill-opacity="0.4"/>
<path d="M99.0561 55.7827C101.901 54.1013 102.502 49.7228 102.212 46.7128C102.09 45.4489 101.799 44.1855 101.319 42.9945C101.404 42.9942 101.505 42.9906 101.593 43.0066C103.33 43.1277 105.525 44.8342 106.865 45.7485C107.103 45.9204 107.555 45.7266 107.469 45.388C107.047 43.8123 106.53 42.2727 105.951 40.7627C106.334 39.396 105.773 38.3062 104.532 37.5415C104.183 37.3243 103.673 37.6487 103.879 38.0814C104.884 40.183 105.729 42.3341 106.434 44.5476C104.948 43.5783 102.623 42.1525 101.01 42.2265C100.839 41.8882 100.665 41.5336 100.479 41.1986C100.118 40.5937 99.0556 39.623 99.3334 38.9051C99.5336 38.3896 101.347 37.8848 101.835 37.7853C102.552 37.6395 103.265 37.6468 103.985 37.5173C104.115 37.4908 104.16 37.2951 104.013 37.2402C102.004 36.6149 99.9253 37.6485 98.4081 38.9409C98.2911 39.0325 98.2624 39.2249 98.3703 39.3386C99.2012 40.2547 99.8954 41.2494 100.456 42.3392C100.251 42.4148 100.066 42.5034 99.9067 42.6376C98.1947 44.1392 100.03 48.2421 100.75 49.8592C100.812 49.9991 101.03 49.9038 100.968 49.7639C100.449 48.547 98.5421 43.7633 100.814 43.0972C101.323 44.2653 101.66 45.5025 101.792 46.8153C102.082 49.6558 101.591 53.9101 98.9545 55.6169C98.808 55.6467 98.9324 55.8418 99.0561 55.7827Z" fill="#9A8979" fill-opacity="0.4"/>
<path d="M84.5982 38.3281C85.6836 38.4123 86.8196 38.0793 87.527 37.2231C87.7315 36.978 87.4074 36.5522 87.118 36.7129C86.3018 37.2012 85.5405 37.5428 84.5793 37.5689C84.1427 37.5899 84.168 38.297 84.5982 38.3281Z" fill="#9A8979" fill-opacity="0.4"/>
<path d="M159.701 132.883C162.901 131.943 167.201 130.831 166.385 126.571C165.546 122.198 160.671 120.24 157.271 118.201C156.808 117.923 156.341 118.544 156.765 118.881C159.105 120.796 162.34 121.443 164.329 123.802C165.51 125.189 166.22 127.012 165.545 128.777C164.744 130.839 162.472 131.505 160.45 131.815C157.799 132.202 154.549 131.897 153.431 128.988C153.073 128.06 153.096 127.174 153.311 126.316C153.631 126.556 153.938 126.816 154.216 127.098C155.397 128.232 156.056 129.556 156.771 130.987C156.883 131.202 157.274 131.122 157.204 130.865C156.689 128.833 155.21 127.066 153.437 125.85C153.621 125.337 153.857 124.832 154.145 124.332C155.698 126.797 157.19 129.376 159.032 131.595C159.123 131.712 159.354 131.597 159.272 131.444C157.895 128.842 156.058 126.401 154.362 123.983C154.644 123.535 154.942 123.084 155.227 122.653C156.569 124.245 157.745 125.939 158.758 127.751C159.102 128.359 159.653 130.4 160.37 130.509C160.442 130.528 160.514 130.462 160.536 130.407C160.559 130.352 160.582 130.296 160.604 130.241C160.627 130.185 160.61 130.104 160.551 130.065C160.512 130.039 160.489 130.01 160.453 130C160.352 129.919 160.19 130.037 160.229 130.147C160.137 129.946 160.027 129.324 159.958 129.151C159.801 128.793 159.611 128.442 159.42 128.091C159.089 127.463 158.729 126.858 158.336 126.26C157.464 124.894 156.446 123.643 155.37 122.438C155.844 121.765 156.304 121.112 156.647 120.465C156.722 120.331 156.633 120.146 156.47 120.179C152.135 120.79 148.914 125.041 149.718 129.405C150.733 134.641 155.814 134.031 159.701 132.883Z" fill="#9A8979" fill-opacity="0.4"/>
<path d="M162.773 127.155C161.523 124.764 159.749 122.632 157.853 120.729C157.725 120.602 157.508 120.782 157.635 120.909C159.529 122.881 161.003 125.039 162.47 127.335C162.578 127.533 162.878 127.337 162.773 127.155Z" fill="#9A8979" fill-opacity="0.4"/>
<path d="M171.338 138.485C172.822 140.031 175.505 140.129 176.848 138.398C176.848 138.398 176.848 138.398 176.844 138.381C177.107 138.09 177.174 137.585 176.726 137.303C176.629 137.238 176.508 137.229 176.394 137.252C176.329 137.181 176.26 137.093 176.211 137.018C176.213 136.865 176.219 136.728 176.206 136.663C176.134 136.39 176.087 136.246 175.917 135.993C175.865 135.902 175.78 135.817 175.711 135.729C175.83 135.4 175.921 135.093 175.962 134.881C176.177 133.939 176.102 132.903 175.62 132.034C174.682 130.343 172.503 129.719 170.897 130.741C170.761 130.819 170.771 131.038 170.859 131.138C171.089 131.431 171.305 131.743 171.534 132.035C170.149 133.894 169.595 136.669 171.338 138.485ZM175.435 134.293C175.404 134.639 175.301 134.965 175.182 135.295L175.162 135.282C175.008 135.194 174.845 135.143 174.666 135.094C173.917 134.162 173.164 133.213 172.427 132.261C172.466 132.202 172.509 132.159 172.564 132.097C172.908 131.705 172.274 131.257 171.917 131.584C171.779 131.409 171.658 131.23 171.524 131.071C173.57 130.129 175.669 132.109 175.435 134.293ZM172.071 132.757C172.653 133.537 173.223 134.337 173.777 135.14C173.62 135.206 173.451 135.291 173.325 135.418C172.578 136.164 173.005 138.18 174.281 137.784C174.584 137.689 174.863 137.394 175.093 137.025C175.26 137.263 175.427 137.5 175.578 137.741C175.585 137.858 175.588 137.959 175.67 138.112C174.419 139.045 172.462 138.595 171.646 137.252C170.791 135.799 171.189 134.09 172.071 132.757Z" fill="#9A8979" fill-opacity="0.4"/>
<path d="M128.944 51.6823C130.509 53.8733 130.144 56.4912 128.544 58.5464C128.408 58.7098 128.66 58.9469 128.816 58.7964C130.82 56.981 130.985 53.9629 129.665 51.7222C130.729 51.5393 131.807 51.3368 132.872 51.154C133.331 51.0774 134.05 50.7784 134.523 50.8517C134.979 50.6742 135.305 50.8621 135.522 51.4284C136.009 51.6515 136.182 51.9214 136.095 52.2443C136.02 52.0393 135.876 51.8312 135.653 51.656C135.372 51.4419 134.98 51.8441 135.222 52.117C135.35 53.4982 134.693 53.9371 133.235 53.437C132.922 53.3143 132.622 53.1719 132.318 53.0133C132.227 52.981 132.152 52.9454 132.077 52.9098C131.698 52.7156 131.297 52.5769 130.811 52.5231C130.342 52.4661 130.279 53.1572 130.735 53.2338C131.179 53.33 131.642 53.524 132.093 53.7375C132.112 53.7505 132.135 53.7797 132.174 53.8056C130.826 55.0974 130.537 57.0895 131.53 58.7187C131.635 58.9008 131.876 59.0042 132.065 58.8472C133.413 57.7248 134.595 56.4499 135.492 54.9446C136.062 53.9976 137.294 52.2206 136.873 51.0685C136.613 50.3753 135.977 50.1657 135.293 50.1355C133.325 50.0445 131.046 50.8474 129.138 51.2189C128.907 51.249 128.823 51.5035 128.944 51.6823ZM134.331 55.4862C133.643 56.4401 132.844 57.264 131.964 58.0198C131.34 56.6207 131.674 55.0945 132.941 54.0735C133.75 54.3835 134.578 54.5371 135.349 53.9903C135.021 54.5486 134.619 55.0714 134.331 55.4862Z" fill="#9A8979" fill-opacity="0.4"/>
<path d="M56.3622 75.2765C56.3619 75.1918 56.3095 75.1007 56.2019 75.0717C53.2 73.9024 49.3931 76.441 49.6979 79.7703C50.0327 83.3308 54.6135 85.0096 57.3796 83.0221C57.5713 82.8813 57.5768 82.575 57.4393 82.3995C56.5621 81.2555 55.7759 80.059 55.0841 78.8263L55.0808 78.81C55.206 78.2589 55.2431 77.6917 55.1989 77.1412C55.2444 77.115 55.2703 77.0758 55.3159 77.0495C55.5182 77.1271 55.7292 76.9145 55.7024 76.6995C55.9883 76.4379 56.2545 76.1632 56.5174 75.8723C56.7026 75.6989 56.5938 75.3311 56.3622 75.2765ZM54.0832 75.8253C54.0865 75.8415 54.0735 75.8611 54.0802 75.8937C54.1465 76.2193 54.1965 76.5483 54.2302 76.8806C54.1847 76.9068 54.1392 76.933 54.1099 76.9559C53.936 76.6013 53.775 76.2271 53.6174 75.8692C53.7802 75.8361 53.93 75.8225 54.0832 75.8253ZM54.1655 78.8946C53.7984 80.1733 52.5913 79.7408 51.9007 78.847C52.5582 78.6623 53.1667 78.4027 53.7652 78.0944C53.89 78.3742 54.0277 78.6344 54.1655 78.8946ZM56.4688 82.5462C54.1596 83.7794 50.6548 82.3055 50.5409 79.4969C50.4801 77.9492 51.4465 76.6164 52.7605 75.908C52.961 76.3929 53.181 76.8907 53.3944 77.3559C52.7049 77.7168 51.9825 77.9995 51.188 78.1782C50.9438 78.2279 50.746 78.5056 50.8804 78.7495C51.3727 79.7515 53.069 81.2544 54.3504 80.5527C54.5325 80.4478 54.6752 80.2322 54.7753 79.9744C55.2965 80.8688 55.8599 81.7206 56.4688 82.5462Z" fill="#9A8979" fill-opacity="0.4"/>
</svg>
