<svg width="193" height="193" viewBox="0 0 193 193" fill="none" xmlns="http://www.w3.org/2000/svg">
<g filter="url(#filter0_d_2013_16888)">
<rect width="109.964" height="109.964" rx="12.4063" transform="matrix(0.706324 -0.707889 0.706324 0.707889 18.6602 86.8418)" fill="#323232"/>
</g>
<path d="M111.255 54.8147C111.588 55.9601 111.815 56.5861 111.974 56.7858C112.134 56.9856 111.974 57.4251 111.615 57.545C111.255 57.6649 110.03 58.0644 110.03 58.0644L109.431 53.7892L109.79 53.0701L110.802 52.1777C110.816 52.1777 111.042 54.0822 111.255 54.8147Z" fill="#F37E4E"/>
<path d="M95.7109 62.7875C95.7109 62.7875 98.015 60.8564 98.5477 60.1639C99.2935 59.1783 99.6265 58.7788 99.44 57.9797C99.2403 57.1806 98.934 56.6478 99.3735 56.8077C99.813 56.9675 106.952 62.1083 106.952 62.1083C106.952 62.1083 105.433 62.7875 104.354 63.7864C103.289 64.772 102.37 66.823 102.37 66.823L95.7109 62.7875Z" fill="#FFA171"/>
<path d="M100.212 61.5512C101.531 63.4557 102.716 66.0794 102.716 66.0794C102.716 66.0794 103.342 64.7475 103.808 64.2814C104.86 63.2293 106.499 62.1638 106.499 62.1638L102.983 56.6367L99.7728 57.7022L99.3333 59.0606L98.7207 59.953C98.7207 59.953 99.3999 60.3658 100.212 61.5512Z" fill="#F37E4E"/>
<path d="M110.254 48.832C110.254 48.832 110.64 49.7776 110.747 51.6289C110.84 53.2936 110.867 54.2126 110.8 55.2514C110.72 56.6099 110.853 57.6887 110.813 58.9539C110.773 60.2191 110.294 61.3379 109.854 61.7507C109.175 62.3767 108.829 62.43 107.63 62.4699C106.445 62.5099 105.086 62.097 103.302 61.3112C101.53 60.5255 99.9722 60.2325 99.6126 58.5277C99.253 56.823 99.4528 55.1982 99.4528 55.1982L105.593 49.458L110.254 48.832Z" fill="#FFA171"/>
<path d="M102.797 55.7168C102.797 55.7168 102.531 56.2762 103.223 57.0753C103.916 57.8744 104.249 58.4071 104.382 58.7933C104.515 59.1929 103.822 59.2861 103.25 58.9931C102.69 58.7001 102.65 58.5269 102.184 58.6601C101.718 58.7933 101.092 58.8599 100.759 58.5669C100.426 58.2739 100.4 58.2073 100 58.3405C99.6005 58.4737 99.0012 58.2473 98.7082 57.5414C98.4285 56.8488 102.797 55.7168 102.797 55.7168Z" fill="#5E2D1E"/>
<path fill-rule="evenodd" clip-rule="evenodd" d="M105.261 43.7833C107.938 44.1828 109.949 45.8609 110.948 48.6045C111.96 51.348 112.094 55.1038 112.067 55.0772C111.468 56.076 110.123 56.8218 108.99 57.4212C107.873 58.0258 106.873 57.4371 105.759 56.7815L105.714 56.7553C104.582 56.0893 103.77 56.0227 102.837 56.2891C102.222 56.4648 101.283 57.1101 100.562 57.6053C100.19 57.8608 99.8756 58.0764 99.6943 58.167C99.1616 58.4334 98.4824 58.4334 97.9496 57.7008C97.8722 57.5945 97.7907 57.4931 97.7052 57.387C97.2024 56.7625 96.5664 55.9726 95.872 53.0128C95.1262 49.8431 95.7255 47.9918 97.8431 45.7677C99.6544 43.8765 102.584 43.3837 105.261 43.7833ZM109.523 55.8916C110.162 55.825 110.682 55.4521 110.881 55.2257C111.188 54.8927 111.121 54.3866 111.015 53.7341C110.921 53.0815 110.588 51.8429 109.59 51.5765C108.964 51.4034 108.311 51.9627 108.098 52.7352C107.898 53.4677 107.885 54.2268 108.258 55.0925C108.458 55.5587 108.83 55.9582 109.523 55.8916Z" fill="#C82C2F"/>
<path d="M101.104 54.9059C102.472 54.9059 103.581 53.767 103.581 52.3621C103.581 50.9573 102.472 49.8184 101.104 49.8184C99.736 49.8184 98.627 50.9573 98.627 52.3621C98.627 53.767 99.736 54.9059 101.104 54.9059Z" fill="#FFAA00"/>
<path d="M101.107 53.9101C101.938 53.9101 102.611 53.2185 102.611 52.3652C102.611 51.512 101.938 50.8203 101.107 50.8203C100.275 50.8203 99.6016 51.512 99.6016 52.3652C99.6016 53.2185 100.275 53.9101 101.107 53.9101Z" fill="#FFC648"/>
<path d="M90.1846 44.3181C90.1846 43.4257 91.5297 43.2526 95.5385 43.8519C99.5606 44.4512 101.359 44.5178 102.238 45.3302C103.103 46.1293 102.904 47.0083 102.704 48.3402C102.504 49.6853 101.705 51.8162 101.572 52.2957C101.438 52.7618 100.773 52.7618 100.44 52.5621C100.107 52.3623 100.107 51.43 100.173 51.0837C100.24 50.7508 99.1078 49.5388 99.1078 49.5388C99.1078 49.5388 97.8292 49.2724 97.0967 48.8729C96.3642 48.4734 96.2311 48.0738 96.2311 48.0738C96.2311 48.0738 94.553 47.874 93.6873 47.4079C92.8216 46.9418 92.755 46.1959 92.755 46.1959C92.755 46.1959 90.1846 45.5966 90.1846 44.3181Z" fill="#FFAA00"/>
<path d="M109.775 55.0943C110.113 55.0943 110.387 54.6054 110.387 54.0023C110.387 53.3991 110.113 52.9102 109.775 52.9102C109.436 52.9102 109.162 53.3991 109.162 54.0023C109.162 54.6054 109.436 55.0943 109.775 55.0943Z" fill="#5E2D1E"/>
<path d="M90.85 44.5438C91.103 45.1431 91.7956 45.4894 93.154 45.5826C94.4992 45.6759 99.7865 45.8224 100.572 45.7957C101.371 45.7691 102.077 45.0899 99.4669 44.7569C96.8565 44.4239 93.5802 43.9312 92.4748 43.9045C91.3694 43.8646 90.5969 43.9578 90.85 44.5438Z" fill="#FFC648"/>
<path d="M93.608 46.4771C93.7279 46.9433 94.194 47.0898 95.0863 47.3295C95.9786 47.5692 96.5247 47.4893 97.5369 47.4494C98.5491 47.4227 100.054 47.1164 100.507 47.0498C100.973 46.9832 101.825 46.4372 99.8276 46.3173C97.8299 46.1975 94.8865 46.1309 94.154 46.1309C93.568 46.1309 93.5547 46.2241 93.608 46.4771Z" fill="#FFC648"/>
<path d="M97.2031 48.2463C97.3763 48.5792 97.9756 48.7657 98.3751 48.8589C98.7747 48.9521 99.3607 48.6458 100.027 48.3661C100.706 48.0864 101.252 47.5937 100.919 47.567C100.586 47.5404 99.414 47.7269 98.6149 47.8068C97.8158 47.9133 97.0167 47.9133 97.2031 48.2463Z" fill="#FFC648"/>
<path d="M99.6539 49.4065C99.9336 49.846 100.147 50.3521 100.373 50.4187C100.599 50.4853 100.932 50.2589 101.026 49.4331C101.119 48.6207 101.292 47.9948 100.759 48.421C100.24 48.8471 99.7738 49.007 99.6139 49.1135C99.4541 49.2067 99.4808 49.1401 99.6539 49.4065Z" fill="#FFC648"/>
<path d="M107.178 129.344C107.178 129.344 106.686 134.631 106.486 135.47C106.273 136.309 105.793 136.935 105.86 137.841C105.926 138.746 106.632 139.026 108.71 139.026C110.801 139.026 116.927 138.96 116.927 138.96C116.927 138.96 112.332 136.389 111.707 135.963C111.081 135.55 110.867 135.124 111.081 133.939C111.294 132.753 111.92 130.596 111.92 130.596L107.178 129.344Z" fill="#FFA171"/>
<path d="M108.311 134.005C109.763 134.071 111.108 133.605 111.108 133.605L112.16 129.85L107.059 129.996L106.753 133.645C106.753 133.659 107.259 133.952 108.311 134.005Z" fill="#F37E4E"/>
<path d="M112.28 135.495C113.266 135.921 114.931 136.774 116.076 137.413C117.235 138.052 117.701 138.265 117.701 138.865C117.701 139.464 115.743 139.371 113.119 139.371C110.855 139.371 105.861 139.357 105.701 139.357C105.528 139.357 105.022 138.358 105.235 137C105.448 135.628 106.487 135.482 106.487 135.482C106.487 135.482 106.647 136.973 107.979 137.067C109.843 137.186 110.789 136.827 111.215 136.574C111.641 136.321 111.641 136.028 111.641 136.028C111.641 136.028 111.082 135.468 111.561 135.175C112.014 134.856 112.28 135.495 112.28 135.495Z" fill="#FFC648"/>
<path d="M65.8123 98.6294C65.8123 98.6294 64.1608 103.238 69.4349 107.313C74.7089 111.375 83.6055 111.708 93.1547 111.708C102.704 111.708 106.779 111.815 106.779 111.815C106.779 111.815 106.127 121.923 105.354 126.198C104.582 130.487 103.703 131.685 104.262 132.125C104.808 132.564 106.127 132.391 109.523 132.391C112.999 132.391 114.424 132.125 114.863 131.579C115.303 131.033 118.206 125.412 119.298 117.182C120.39 108.938 121.056 104.876 119.192 101.919C117.327 98.9491 113.705 96.645 108.431 95.766C103.157 94.887 98.3221 93.7949 98.3221 93.7949L65.8123 98.6294Z" fill="#FFC648"/>
<path d="M70.7936 102.451C76.1609 103.649 85.2173 103.982 90.8909 100.759C96.5645 97.5364 99.7076 96.2978 100.893 95.9782C102.078 95.6585 105.488 95.3389 105.488 95.3389L100.8 94.4199L79.7568 97.8693L65.5596 100.4C65.5596 100.413 68.1699 101.865 70.7936 102.451Z" fill="#FFAA00"/>
<path d="M96.2705 62.5257C96.2705 62.5257 96.124 59.0097 90.81 57.8909C85.5093 56.7722 84.3107 56.9986 82.2197 59.0896C80.1287 61.1805 79.01 64.0173 80.0488 66.1083C81.0877 68.1993 86.2551 66.8541 89.1585 65.7354C92.0885 64.6166 94.8454 64.0306 96.2705 62.5257Z" fill="#FFC648"/>
<path d="M95.7374 61.8199C95.7374 61.8199 95.0315 59.9553 92.8739 58.9565C91.2358 58.1973 88.4922 57.6113 86.4545 57.6113C84.7631 57.6113 83.9107 58.0641 83.711 58.7833C83.4712 59.6357 86.4146 58.8632 89.4911 59.5425C91.5954 60.0086 93.6464 60.5547 94.5654 61.5802C95.1114 62.1795 95.6441 62.8854 95.8439 62.7522C96.097 62.619 95.8972 62.0863 95.7374 61.8199Z" fill="#FFAA00"/>
<path d="M98.0145 64.1065C100.252 65.385 102.356 66.8101 102.356 66.8101C102.356 66.8101 100.572 70.8322 100.358 75.7466C100.145 80.6611 99.5061 84.2836 100.039 88.2392C100.572 92.1947 100.785 94.4322 100.785 94.4322C100.785 94.4322 93.3131 98.4942 84.7628 99.5597C76.2258 100.625 65.5446 100.412 65.5446 100.412C65.5446 100.412 61.376 93.3667 70.1394 80.2349C78.9028 67.1031 86.5874 64.5327 89.038 63.3607C91.4885 62.1887 95.6971 62.788 95.6971 62.788L98.0145 64.1065Z" fill="#FFC648"/>
<path d="M68.6351 154.965C74.8651 154.965 79.9156 149.915 79.9156 143.685C79.9156 137.455 74.8651 132.404 68.6351 132.404C62.405 132.404 57.3545 137.455 57.3545 143.685C57.3545 149.915 62.405 154.965 68.6351 154.965Z" fill="#5E2D1E"/>
<path d="M68.6333 150.837C72.5832 150.837 75.7853 147.635 75.7853 143.685C75.7853 139.735 72.5832 136.533 68.6333 136.533C64.6835 136.533 61.4814 139.735 61.4814 143.685C61.4814 147.635 64.6835 150.837 68.6333 150.837Z" fill="#DBB38A"/>
<path d="M68.6349 150.078C72.1656 150.078 75.0277 147.216 75.0277 143.686C75.0277 140.155 72.1656 137.293 68.6349 137.293C65.1043 137.293 62.2422 140.155 62.2422 143.686C62.2422 147.216 65.1043 150.078 68.6349 150.078Z" fill="#F9E5D0"/>
<path d="M68.6362 146.241C70.0485 146.241 71.1933 145.096 71.1933 143.684C71.1933 142.272 70.0485 141.127 68.6362 141.127C67.224 141.127 66.0791 142.272 66.0791 143.684C66.0791 145.096 67.224 146.241 68.6362 146.241Z" fill="#5E2D1E"/>
<path d="M138.063 154.965C144.293 154.965 149.343 149.915 149.343 143.685C149.343 137.455 144.293 132.404 138.063 132.404C131.833 132.404 126.782 137.455 126.782 143.685C126.782 149.915 131.833 154.965 138.063 154.965Z" fill="#5E2D1E"/>
<path d="M138.064 150.837C142.014 150.837 145.216 147.635 145.216 143.685C145.216 139.735 142.014 136.533 138.064 136.533C134.114 136.533 130.912 139.735 130.912 143.685C130.912 147.635 134.114 150.837 138.064 150.837Z" fill="#DBB38A"/>
<path d="M138.064 150.078C141.594 150.078 144.456 147.216 144.456 143.686C144.456 140.155 141.594 137.293 138.064 137.293C134.533 137.293 131.671 140.155 131.671 143.686C131.671 147.216 134.533 150.078 138.064 150.078Z" fill="#F9E5D0"/>
<path d="M138.063 146.241C139.475 146.241 140.62 145.096 140.62 143.684C140.62 142.272 139.475 141.127 138.063 141.127C136.651 141.127 135.506 142.272 135.506 143.684C135.506 145.096 136.651 146.241 138.063 146.241Z" fill="#5E2D1E"/>
<path d="M53.0275 133.311C54.4251 133.311 55.558 131.934 55.558 130.235C55.558 128.536 54.4251 127.158 53.0275 127.158C51.63 127.158 50.4971 128.536 50.4971 130.235C50.4971 131.934 51.63 133.311 53.0275 133.311Z" fill="#C82C2F"/>
<path d="M60.6583 126.131C60.6583 126.131 57.4486 125.998 55.9036 126.131C54.372 126.265 52.9736 126.824 52.9736 126.824V133.417C52.9736 133.417 53.2533 133.816 54.5052 133.816C55.7571 133.816 60.6583 126.131 60.6583 126.131Z" fill="#F9E5D0"/>
<path d="M79.6904 69.1591C79.6904 69.1591 81.2753 69.6119 84.0588 68.2535C86.2963 67.1614 88.6403 66.3623 90.7712 65.43C92.9021 64.4977 95.7123 62.793 95.7123 62.793C95.7123 62.793 86.0832 65.7363 85.6703 65.8428C85.2575 65.9494 82.1277 67.148 82.1277 67.148L79.6904 69.1591Z" fill="#FFAA00"/>
<path d="M65.8387 121.137C65.8387 120.711 65.5856 120.351 65.2393 120.178V106.767C65.2393 106.261 64.8265 105.848 64.3204 105.848H62.4558C61.9497 105.848 61.5369 106.261 61.5369 106.767V120.085H30.7051C30.1191 120.085 29.6396 120.564 29.6396 121.15C29.6396 121.736 30.1191 122.216 30.7051 122.216H52.5204L63.9208 128.063C64.2937 128.249 64.7466 128.102 64.933 127.743L65.4391 126.757C65.6256 126.384 65.4791 125.932 65.1195 125.745L58.2872 122.229H64.7865C65.3592 122.202 65.8387 121.723 65.8387 121.137Z" fill="#9E9E9F"/>
<path d="M94.0211 67.707C94.0211 67.707 96.9911 67.7869 97.4039 72.9544C97.6037 75.405 97.7902 77.2163 97.9233 78.4549C98.0698 79.7334 98.7757 80.8788 99.8412 81.5847V81.5847L99.9344 83.4492L95.1931 83.9553L92.7559 81.9309L94.0211 67.707Z" fill="#FFAA00"/>
<path d="M82.3525 90.0802C82.9252 93.4897 85.682 94.968 90.9427 94.928C96.563 94.8881 100.705 93.7694 100.705 93.7694L99.9725 89.2278C99.9725 89.2278 89.7441 89.3344 87.9461 86.8039C86.1482 84.2734 84.4701 69.9297 84.4701 69.9297C84.4701 69.9297 80.2482 77.5344 82.3525 90.0802Z" fill="#FFAA00"/>
<path d="M91.8752 120.376C91.8752 120.376 90.277 117.366 79.2495 117.765C68.222 118.165 62.8148 120.629 58.7527 125.983C55.2634 130.591 53.199 134.999 51.9871 138.808C50.7884 142.617 50.1891 142.817 51.3877 143.816C52.5864 144.815 82.5924 145.041 82.5924 145.041L85.6423 146.013L112.092 145.814L126.316 143.816L151.568 136.597C151.568 136.597 150.675 130.644 143.776 127.941C139.701 126.342 136.545 126.782 136.545 126.782L123.12 87.3066C123.12 87.3066 122.054 86.0547 120.39 85.0159C118.725 83.9771 115.715 84.4965 113.837 85.7484C111.972 87.0003 115.915 90.3166 117.992 94.1655C120.07 98.0145 122.893 102.929 122.893 115.382C122.893 127.834 122.893 129.206 122.893 131.51C122.893 133.814 121.881 136.677 119.058 138.875C118.086 139.634 97.9484 139.488 96.2569 139.488C94.126 139.488 88.7987 136.118 87.8664 131.204C86.9342 126.289 91.8752 120.376 91.8752 120.376Z" fill="#E84C4F"/>
<path d="M77.5844 122.524C83.4444 124.095 85.2157 127.771 85.4954 132.965C85.7751 137.893 85.6419 138.173 85.8683 139.678C86.148 141.595 86.0015 141.089 95.3109 141.289C105.087 141.502 110.853 141.329 115.168 140.437C118.285 139.798 119.976 138.865 121.401 136.788C123.226 134.097 122.787 129.369 122.946 122.644C123.146 114.04 121.535 101.987 119.51 96.8328C118.232 93.5565 120.522 87.55 123.133 87.3369C125.756 87.1238 127.674 121.884 127.674 121.884L131.976 125.201C131.976 125.201 137.13 126.612 138.049 126.706C142.005 127.145 142.937 127.771 142.924 127.784C142.924 127.784 139.568 127.784 135.292 136.961C134.826 137.96 133.934 141.609 133.934 141.609C133.934 141.609 128.447 143.26 127.927 143.38C124.598 144.126 123.439 145.418 123.439 145.418L106.338 146.244L85.6818 146.044L82.6053 145.058L80.4611 133.098L71.0184 128.584L63.214 131.727L56.5149 137.88L53.1853 144.432C53.1853 144.432 52.3063 144.579 51.4007 143.833C50.495 143.087 50.495 143.46 52 138.825C53.5049 134.191 56.4749 130.448 60.5503 126.586C64.6257 122.724 73.3092 121.378 77.5844 122.524Z" fill="#C82C2F"/>
<path d="M72.0851 124.763C78.8908 124.576 82.5266 128.146 83.1393 133.366C83.7519 138.587 82.6065 145.06 82.6065 145.06L53.1865 144.434C53.1865 144.434 54.7181 125.229 72.0851 124.763Z" fill="#E84C4F"/>
<path d="M67.3185 105.261C67.3185 105.261 64.4018 104.649 63.9357 106.953C63.4695 109.257 63.9357 117.088 63.9357 118.633C63.9357 120.164 67.798 119.112 71.3273 118.806C74.8567 118.5 80.4903 117.914 84.6323 118.686C88.7742 119.459 91.8641 120.404 91.8641 120.404C91.8641 120.404 93.4223 120.324 94.8074 120.324C96.1925 120.324 96.4988 117.554 96.8051 115.104C97.1115 112.64 96.4056 111.721 93.1559 111.721C89.9063 111.721 72.5393 112.786 67.3185 105.261Z" fill="#C82C2F"/>
<path d="M116.915 87.8826C116.449 89.4408 116.502 89.8404 115.583 89.574C114.651 89.321 114.251 89.6273 113.838 90.3997C113.425 91.1722 110.655 88.6018 110.655 88.6018C110.655 88.6018 111.534 87.4165 113.386 86.7505C115.237 86.0846 115.956 86.3909 116.569 86.5907C117.168 86.7905 117.061 87.3632 116.915 87.8826Z" fill="#E84C4F"/>
<path d="M112.2 81.7542C113.377 81.7542 114.331 80.1263 114.331 78.1183C114.331 76.1103 113.377 74.4824 112.2 74.4824C111.023 74.4824 110.069 76.1103 110.069 78.1183C110.069 80.1263 111.023 81.7542 112.2 81.7542Z" fill="#E84C4F"/>
<path d="M117.66 78.6809C118.712 78.6809 119.565 77.226 119.565 75.4313C119.565 73.6366 118.712 72.1816 117.66 72.1816C116.609 72.1816 115.756 73.6366 115.756 75.4313C115.756 77.226 116.609 78.6809 117.66 78.6809Z" fill="#E84C4F"/>
<path d="M113.306 77.8105C113.306 77.8105 114.411 78.4498 114.651 80.8205C114.891 83.1911 117.101 85.2555 117.101 85.2555L115.184 86.3875C115.184 86.3875 114.171 83.6706 113.945 82.0857C113.705 80.5008 113.159 78.1302 113.159 78.1302L113.306 77.8105Z" fill="#E84C4F"/>
<path d="M116.075 75.9883C116.075 75.9883 115.742 77.8129 116.155 79.9438C116.941 83.9792 118.646 85.2312 118.646 85.2312L121.056 85.7106C121.056 85.7106 118.366 83.1002 117.66 81.5154C116.954 79.9305 117.101 77.4799 117.101 77.4799L116.075 75.9883Z" fill="#E84C4F"/>
<path d="M136.145 98.8427H135.932C138.103 98.8427 139.861 96.9515 139.861 94.421V93.8084C139.861 91.198 138.103 89.2402 135.932 89.2402H136.145V98.8427Z" fill="#FFC648"/>
<path d="M137.078 99.243H135.653C133.296 99.243 131.392 97.3385 131.392 94.9812V93.09C131.392 90.7326 133.296 88.8281 135.653 88.8281H137.078V99.243Z" fill="#C82C2F"/>
<path d="M103.649 84.1396C103.649 84.1396 105.22 84.1795 107.937 84.1795C110.654 84.1795 112.665 83.9797 114.077 83.5136C115.489 83.0475 115.489 82.7678 116.914 83.6734C118.326 84.5791 118.565 84.7788 118.645 85.245C118.725 85.7111 118.246 87.8021 118.019 88.5879C117.78 89.3736 117.353 89.3337 117.114 89.2138C116.874 89.094 117.034 87.9086 117.074 87.4425C117.114 86.9763 117.034 86.6967 117.034 86.6967C117.034 86.6967 115.689 86.3371 115.182 86.377C114.676 86.417 113.491 86.417 112.585 87.0829C111.893 87.6023 111.52 88.0285 110.494 88.2283C109.722 88.3748 108.683 88.428 107.738 88.1084C106.885 87.8287 102.93 88.0684 102.93 88.0684L103.649 84.1396Z" fill="#FFA171"/>
<path d="M84.1126 73.4209C83.8729 77.5096 83.0072 84.3685 84.2458 87.8446C84.8984 89.6825 85.8706 90.3751 87.4954 91.2807C89.8528 92.5992 94.2611 91.7868 97.7904 91.6936C103.104 91.5604 102.745 89.1898 102.745 89.1898C102.745 89.1898 101.946 88.2708 102.492 86.0333C103.025 83.7959 103.464 83.8491 103.464 83.8491C103.464 83.8491 103.664 81.7715 100.774 82.1977C97.897 82.6239 96.0724 82.4108 96.0724 82.4108C96.0724 82.4108 97.2444 75.685 95.9658 70.7706C94.6873 65.8562 91.4776 64.6842 89.2801 65.1903C86.5365 65.8029 84.4322 67.9738 84.1126 73.4209Z" fill="#FFC648"/>
<path d="M105.327 85.6589C105.646 86.791 106.752 87.2305 107.418 87.4569C108.084 87.6833 109.216 88.0296 110.215 87.6433C111.213 87.2571 113.358 86.7377 113.358 86.7377C113.358 86.7377 111.693 87.6966 111.307 87.9763C110.92 88.256 109.935 88.549 109.216 88.4557C108.51 88.3625 107.604 88.0695 107.178 87.9763C106.752 87.8831 103.476 88.0296 103.476 88.0296L103.809 84.7533L104.568 84.1406L105.274 84.1939C105.287 84.1939 105.087 84.8065 105.327 85.6589Z" fill="#F37E4E"/>
<path d="M103.436 83.8203L104.941 84.06C104.941 84.06 104.262 84.4596 104.262 85.9646C104.262 87.9623 104.688 88.2686 104.688 88.2686L102.677 88.8413C102.677 88.8413 101.625 88.9878 101.625 86.8569C101.625 84.726 102.025 83.9535 103.436 83.8203Z" fill="#FFC648"/>
<path d="M102.85 83.2983C102.557 83.7378 101.718 83.7244 101.505 86.0818C101.292 88.4391 101.385 89.3048 101.012 90.0107C100.639 90.7165 100.426 90.8098 100.213 91.0228C99.9998 91.2359 99.4404 91.5689 99.4404 91.5689C99.4404 91.5689 100.826 91.449 101.585 90.8897C102.357 90.3436 102.437 90.1838 102.597 89.8508C102.757 89.5179 102.69 88.9585 102.69 88.9585C102.69 88.9585 102.224 88.1861 102.504 86.2949C102.783 84.3904 103.423 83.8177 103.423 83.8177C103.423 83.8177 103.449 83.6312 103.423 83.2983C103.396 82.9653 103.05 82.6323 102.863 82.5391C102.703 82.4459 103.103 82.9254 102.85 83.2983Z" fill="#FFAA00"/>
<path d="M112.04 91.8907C113.136 91.8907 114.025 91.0023 114.025 89.9063C114.025 88.8103 113.136 87.9219 112.04 87.9219C110.944 87.9219 110.056 88.8103 110.056 89.9063C110.056 91.0023 110.944 91.8907 112.04 91.8907Z" fill="#C82C2F"/>
<path d="M124.159 85.7488C121.549 87.347 120.43 89.6111 122.295 100.785C124.159 111.959 126.73 124.705 125.451 131.87C124.159 139.035 122.162 140.034 118.433 142.325C114.703 144.616 99.9734 144.855 95.2455 144.855C90.5175 144.855 82.6064 145.055 82.6064 145.055C82.6064 145.055 82.8994 146.347 83.7518 146.92C84.6175 147.492 119.285 146.92 121.855 146.92C124.439 146.92 129.021 143.337 133.456 136.611C137.891 129.872 140.195 122.72 139.755 113.118C139.316 103.515 135.174 95.6443 132.443 91.7687C129.74 87.8931 126.73 84.164 124.159 85.7488Z" fill="#E84C4F"/>
<path d="M104.063 131.459C104.063 131.459 107.393 119.579 108.818 116.25C110.243 112.92 111.189 111.029 109.843 110.629C108.498 110.23 101.373 111.655 101.373 111.655L106.78 111.801C106.78 111.815 103.904 129.555 104.063 131.459Z" fill="#FFAA00"/>
<path d="M53.6803 144.634L82.5943 145.087C83.1137 145.1 83.5532 144.807 83.6331 144.407L83.7396 143.835C83.8196 143.422 83.4067 143.129 82.874 143.062C80.7697 142.809 76.348 142.636 68.1839 142.583C59.86 142.53 55.3318 142.476 53.4806 142.689C53.0677 142.743 52.8679 142.876 52.8147 143.195L52.7481 143.795C52.6815 144.234 53.1077 144.62 53.6803 144.634Z" fill="#FFC648"/>
<path d="M127.915 143.381L151.582 136.616V136.616C151.968 136.496 152.208 136.096 152.088 135.697C151.994 135.39 151.861 135.217 151.528 134.778C151.182 134.312 150.729 134.511 150.729 134.511L130.166 140.984C130.166 140.997 128.941 142.715 127.915 143.381Z" fill="#FFC648"/>
<path d="M68.3032 98.708C73.0845 98.8944 78.1854 98.8412 85.2973 97.6692C94.5002 96.1642 100.693 93.4473 100.693 93.4473L100.786 94.4195C100.786 94.4195 95.5124 97.4827 88.4271 98.961C81.3418 100.439 72.2188 100.559 70.5007 100.559C68.7827 100.559 65.5464 100.399 65.5464 100.399L64.6807 98.0554C64.694 98.0687 65.9592 98.6147 68.3032 98.708Z" fill="white"/>
<path fill-rule="evenodd" clip-rule="evenodd" d="M103.675 67.5174H103.928C104.674 67.5174 106.859 67.4241 107.484 66.3587C107.764 65.8792 107.698 65.2932 107.285 64.6406C106.952 64.1079 106.499 63.8282 105.966 63.8149C104.261 63.7749 102.224 66.5318 102.144 66.6517L101.971 66.8781L102.197 67.0512C102.199 67.0523 102.204 67.0556 102.213 67.061C102.313 67.1245 102.852 67.4682 103.675 67.5174ZM103.717 66.9439C103.317 66.9173 102.997 66.8107 102.798 66.7175C103.45 65.8785 104.862 64.3735 105.914 64.3868H105.954C106.287 64.4001 106.58 64.5733 106.807 64.9462C107.113 65.399 107.166 65.7852 107.006 66.0649C106.553 66.8374 104.556 66.9839 103.717 66.9439Z" fill="#FFAA00"/>
<path fill-rule="evenodd" clip-rule="evenodd" d="M102.89 71.298C103.05 71.3912 103.237 71.4311 103.423 71.4311C103.716 71.4311 104.049 71.3113 104.422 71.0715C104.888 70.7519 105.128 70.3524 105.128 69.8729C105.141 68.3946 102.824 66.7564 102.557 66.57L102.318 66.4102L102.158 66.6499C102.157 66.6519 102.154 66.6566 102.15 66.6638C102.095 66.7539 101.796 67.2414 101.772 67.9684C101.772 67.9688 101.772 67.9697 101.772 67.971C101.771 68.0692 101.748 70.6676 102.89 71.298ZM102.331 67.9814C102.345 67.6751 102.424 67.4087 102.491 67.2356C103.237 67.8082 104.555 68.9802 104.542 69.8726C104.542 70.1656 104.396 70.4053 104.089 70.6051C103.703 70.8581 103.397 70.9247 103.157 70.7915C102.518 70.4453 102.305 68.7938 102.331 67.9814Z" fill="#FFAA00"/>
<path d="M107.22 68.3722C104.782 68.3722 102.745 67.2935 102.651 67.2535C102.518 67.1736 102.465 67.0138 102.532 66.8673C102.612 66.7341 102.771 66.6808 102.918 66.7474C102.931 66.7607 104.929 67.7996 107.22 67.7996C109.39 67.7996 110.003 66.9472 110.016 66.9339C110.11 66.8007 110.283 66.7741 110.403 66.854C110.536 66.9339 110.576 67.107 110.483 67.2402C110.456 67.2935 109.75 68.3722 107.22 68.3722Z" fill="#FFAA00"/>
<path d="M106.499 71.8073C106.472 71.8073 106.432 71.8073 106.406 71.7939C106.259 71.7407 106.179 71.5942 106.233 71.4477C106.233 71.421 106.259 71.3944 106.286 71.3411C106.419 71.0614 106.805 70.2357 106.206 69.6097C105.434 68.7973 103.423 67.8251 103.396 67.8118C103.249 67.7452 103.196 67.5721 103.263 67.4389C103.329 67.2924 103.502 67.2391 103.636 67.3057C103.729 67.3456 105.767 68.3312 106.619 69.2235C107.192 69.8228 107.245 70.6219 106.792 71.5808C106.779 71.6075 106.779 71.6208 106.765 71.6341C106.725 71.7273 106.606 71.8073 106.499 71.8073Z" fill="#FFAA00"/>
<path d="M56.5166 137.879C56.5166 137.879 58.1015 131.153 64.9204 127.717C71.7527 124.281 76.0545 126.438 77.5861 127.291C79.3974 128.303 80.343 131.1 80.4628 133.084C80.596 135.082 56.5166 137.879 56.5166 137.879Z" fill="#F25A62"/>
<path d="M124.533 87.4689C122.961 88.6809 122.602 91.3312 122.881 94.9271C123.161 98.5231 125.292 109.577 125.971 114.385C126.664 119.193 126.93 125.12 126.93 127.597C126.93 130.074 126.651 131.446 126.651 131.446C126.651 131.446 128.169 128.689 127.756 123.188C127.343 117.688 127.476 113.693 126.517 108.059C125.558 102.425 124.733 97.058 124.586 94.168C124.453 91.2779 124.453 89.2136 125.692 88.3879C126.93 87.5621 126.264 86.1238 124.533 87.4689Z" fill="#F25A62"/>
<path d="M43.6241 128.916C45.4487 127.77 46.7406 127.677 47.8993 128.916C49.058 130.154 48.8715 131.5 47.8061 132.472C46.7406 133.444 46.0214 133.364 45.4088 134.163C44.7828 134.962 42.5587 134.962 41.946 133.99C41.3068 133.018 41.2269 130.434 43.6241 128.916Z" fill="#C1E5F2"/>
<path d="M31.2655 128.305C33.9158 127.093 35.6205 126.706 37.0456 127.412C38.4706 128.118 39.5361 128.931 39.8025 130.342C40.0688 131.767 40.242 132.926 39.2697 134.165C38.2975 135.403 37.4851 136.216 36.3397 136.482C35.181 136.748 34.0223 135.949 33.6761 135.59C33.3165 135.23 32.7038 135.417 32.4375 135.949C32.1711 136.482 30.9192 136.922 30.0402 136.482C29.1479 136.043 29.0679 135.59 28.9747 135.15C28.8815 134.711 28.442 134.884 28.1756 134.258C27.8826 133.632 27.3499 130.076 31.2655 128.305Z" fill="#C1E5F2"/>
<path d="M13.0319 127.237C12.8587 130.114 13.3914 131.326 14.63 132.125C15.8686 132.924 15.8686 133.283 16.0551 134.176C16.2282 135.068 17.4801 136.227 19.7842 135.774C22.1016 135.334 23.9661 133.11 24.1393 132.125C24.3124 131.139 24.4989 130.886 25.298 130.7C26.0971 130.526 28.4144 129.461 28.5876 126.784C28.7607 124.12 27.6952 123.401 26.8962 123.055C26.0971 122.695 25.9239 122.882 26.0971 122.083C26.2702 121.284 25.2047 119.419 23.3402 119.153C21.4756 118.886 19.5178 119.153 18.2659 120.937C17.3736 122.216 17.64 122.988 17.1072 123.428C16.5878 123.854 13.205 124.387 13.0319 127.237Z" fill="#C1E5F2"/>
<path d="M137.078 99.4149V99.4149C136.851 99.4149 136.665 99.2284 136.665 99.002V89.1199C136.665 88.8935 136.851 88.707 137.078 88.707V88.707C137.304 88.707 137.491 88.8935 137.491 89.1199V99.002C137.491 99.2284 137.304 99.4149 137.078 99.4149Z" fill="white"/>
<path d="M105.247 138.347L117.62 138.4" stroke="#FFDDA1" stroke-width="0.147031"/>
<path d="M109.789 132.459L109.229 132.352C111.187 122.603 114.024 106.741 113.278 105.703C112.466 104.81 108.843 104.73 101.611 104.584C99.3604 104.531 96.8033 104.477 93.8333 104.397C85.7625 104.158 82.6327 102.573 81.4207 101.294C80.7148 100.535 80.7148 99.9357 80.7148 99.8691L81.2875 99.8825C81.2875 99.9224 81.4473 103.465 93.8466 103.838C96.8166 103.931 99.3604 103.984 101.611 104.024C109.469 104.184 112.719 104.264 113.691 105.343C113.931 105.609 114.503 106.249 112.199 119.514C111.094 125.973 109.802 132.392 109.789 132.459Z" fill="#FFDDA1"/>
<rect x="24.3135" y="93.459" width="36.6918" height="4.04875" fill="#FFC263"/>
<rect x="24.3135" y="95.2988" width="36.6918" height="1.49164" fill="#FBA647"/>
<rect x="23.5938" y="91.9043" width="38.1168" height="4.04875" fill="#FFC263"/>
<rect x="24.3135" y="104.74" width="36.6918" height="4.04875" fill="#FFC263"/>
<rect x="24.3135" y="106.566" width="36.6918" height="1.49164" fill="#FBA647"/>
<rect x="23.5938" y="103.17" width="38.1168" height="4.04875" fill="#FFC263"/>
<rect x="24.5918" y="87.8535" width="36.6918" height="4.04875" fill="#FCA647"/>
<rect x="24.5918" y="89.9707" width="36.6918" height="1.22528" fill="#EF851B"/>
<rect x="23.8857" y="86.2812" width="38.1168" height="4.04875" fill="#FBA647"/>
<rect x="23.7402" y="99.1328" width="36.6918" height="4.04875" fill="#FCA647"/>
<rect x="23.7402" y="101.252" width="36.6918" height="1.22528" fill="#EF851B"/>
<rect x="23.0342" y="97.5605" width="38.1168" height="4.04875" fill="#FBA647"/>
<rect x="24.3135" y="116.035" width="36.6918" height="4.04875" fill="#FFC263"/>
<rect x="24.3135" y="117.871" width="36.6918" height="1.49164" fill="#FBA647"/>
<rect x="23.5938" y="114.465" width="38.1168" height="4.04875" fill="#FFC263"/>
<rect x="23.7402" y="110.43" width="36.6918" height="4.04875" fill="#FCA647"/>
<rect x="23.7402" y="112.545" width="36.6918" height="1.22528" fill="#EF851B"/>
<rect x="23.0342" y="108.857" width="38.1168" height="4.04875" fill="#FBA647"/>
<rect x="23.0215" y="82.2324" width="36.6918" height="4.04875" fill="#FFC263"/>
<rect x="23.0752" y="84.0332" width="36.6918" height="1.49164" fill="#FBA647"/>
<rect x="22.3145" y="80.6621" width="38.1168" height="4.04875" fill="#FFC263"/>
<path d="M25.7637 101.703L26.0034 103.301H26.2831C26.2831 103.301 26.323 104.42 26.8025 105.605C27.282 106.804 28.2009 107.43 28.7869 107.829C29.3862 108.229 30.6914 108.908 33.0088 108.868C35.3129 108.828 37.3506 108.508 38.5359 107.629C39.7345 106.75 43.4769 103.288 43.4769 103.288H44.0363L44.7422 101.689L25.7637 101.703Z" fill="#EF851B"/>
<path d="M26.2031 101.627C26.2031 101.627 26.4961 104.717 28.041 106.262C29.6526 107.873 31.7435 108.885 34.7534 108.153C37.7634 107.42 38.7622 106.342 40.4537 105.09C42.1451 103.838 44.7155 101.707 44.7155 101.707L26.2031 101.627Z" fill="#FFF498"/>
<path d="M29.6122 105.85C30.6111 106.609 32.0095 107.208 33.328 107.088C34.6465 106.968 36.551 106.422 38.0693 105.237C39.6009 104.038 42.9038 101.734 42.9038 101.734L27.2549 101.654C27.2549 101.628 27.5479 104.278 29.6122 105.85Z" fill="#FBE17B"/>
<path d="M31.0512 103.786C32.4896 103.906 33.2221 102.92 33.4219 102.614C33.635 102.281 33.7815 101.682 33.7815 101.682H28.7871C28.7871 101.682 29.0402 103.613 31.0512 103.786Z" fill="#C14423"/>
<path d="M36.9648 101.704C36.9648 101.704 37.3777 103.249 39.2689 103.236C40.9337 103.236 41.533 101.664 41.533 101.664C41.533 101.664 37.0448 101.704 36.9648 101.704Z" fill="#C14423"/>
<path d="M35.5935 106.046C36.5939 106.046 37.4048 105.235 37.4048 104.235C37.4048 103.235 36.5939 102.424 35.5935 102.424C34.5932 102.424 33.7822 103.235 33.7822 104.235C33.7822 105.235 34.5932 106.046 35.5935 106.046Z" fill="#C14423"/>
<path d="M31.5828 103.162C31.8108 103.162 31.9957 102.977 31.9957 102.749C31.9957 102.521 31.8108 102.336 31.5828 102.336C31.3548 102.336 31.1699 102.521 31.1699 102.749C31.1699 102.977 31.3548 103.162 31.5828 103.162Z" fill="#D85A41"/>
<path d="M35.4852 105.515C35.7721 105.515 36.0046 105.283 36.0046 104.996C36.0046 104.709 35.7721 104.477 35.4852 104.477C35.1984 104.477 34.9658 104.709 34.9658 104.996C34.9658 105.283 35.1984 105.515 35.4852 105.515Z" fill="#D85A41"/>
<path d="M35.1793 104.105C35.3705 104.105 35.5256 103.95 35.5256 103.758C35.5256 103.567 35.3705 103.412 35.1793 103.412C34.988 103.412 34.833 103.567 34.833 103.758C34.833 103.95 34.988 104.105 35.1793 104.105Z" fill="#D85A41"/>
<path d="M38.7613 102.798C38.9526 102.798 39.1076 102.643 39.1076 102.452C39.1076 102.261 38.9526 102.105 38.7613 102.105C38.5701 102.105 38.415 102.261 38.415 102.452C38.415 102.643 38.5701 102.798 38.7613 102.798Z" fill="#D85A41"/>
<path d="M39.8267 102.48C40.018 102.48 40.173 102.325 40.173 102.133C40.173 101.942 40.018 101.787 39.8267 101.787C39.6355 101.787 39.4805 101.942 39.4805 102.133C39.4805 102.325 39.6355 102.48 39.8267 102.48Z" fill="#D85A41"/>
<path d="M38.4701 122.711V122.711C38.3102 122.711 38.1771 122.578 38.1904 122.418L38.9096 80.266C38.9096 80.1062 39.0427 79.9996 39.2026 79.9863C39.3624 79.9863 39.4822 80.1195 39.4822 80.2793L38.7631 122.432C38.7631 122.578 38.6299 122.711 38.4701 122.711Z" fill="#C82C2F"/>
<path d="M48.3392 122.614V122.614C48.1794 122.614 48.0462 122.481 48.0595 122.321L48.7787 80.475C48.7787 80.3152 48.9119 80.1953 49.0717 80.1953C49.2315 80.1953 49.3514 80.3285 49.3514 80.4883L48.6322 122.334C48.6189 122.481 48.499 122.614 48.3392 122.614Z" fill="#C82C2F"/>
<path fill-rule="evenodd" clip-rule="evenodd" d="M43.7183 80.4516H43.7849C43.8515 80.4516 43.9181 80.4249 43.958 80.385C44.0246 80.3317 44.0646 80.2518 44.0646 80.1586C44.0646 80.052 43.9713 77.6015 43.079 75.7236C42.4797 74.4717 41.3743 73.5794 40.3221 73.4861C39.7761 73.4329 38.977 73.5794 38.3244 74.5116C37.7251 75.364 37.5786 76.203 37.8849 76.9888C38.7905 79.3462 43.5185 80.4116 43.7183 80.4516ZM38.8025 74.8453C39.1754 74.3125 39.6283 74.0462 40.1477 74.0462C40.1876 74.0462 40.2276 74.0462 40.2942 74.0595C41.1465 74.1261 42.0788 74.8985 42.5849 75.9773C43.2242 77.3358 43.424 79.0538 43.4906 79.813C42.3851 79.52 39.0955 78.5078 38.4296 76.7897C38.1899 76.1771 38.3098 75.5378 38.8025 74.8453Z" fill="#C82C2F"/>
<path fill-rule="evenodd" clip-rule="evenodd" d="M43.5579 80.4912C43.6111 80.5578 43.691 80.5978 43.771 80.5978C43.7843 80.5978 43.7843 80.5978 43.7976 80.5845C43.8908 80.5845 46.2215 80.3847 48.0594 79.5323C49.2048 78.9996 50.0838 77.9608 50.3102 76.8953C50.4434 76.2427 50.3235 75.6301 49.9506 75.2039C49.2847 74.4314 48.4723 74.1384 47.6066 74.3382C45.9152 74.7377 44.3436 76.9885 43.5046 80.2382C43.478 80.3314 43.5046 80.4246 43.5579 80.4912ZM47.7396 74.898C47.8727 74.8713 47.9926 74.858 48.1258 74.858C48.6319 74.858 49.098 75.0977 49.5375 75.5772C49.7906 75.8702 49.8705 76.3097 49.7639 76.7891C49.5642 77.6948 48.805 78.5738 47.8328 79.0266C46.5276 79.6393 44.9161 79.8923 44.1703 79.9855C44.9694 77.202 46.3411 75.2176 47.7396 74.898Z" fill="#C82C2F"/>
<path d="M42.2785 80.5158C39.8013 80.5158 37.3108 79.5969 34.9002 78.7046C32.676 77.8921 30.5717 77.1197 28.5074 76.9998C23.8993 76.7468 23.2067 79.8766 23.1801 80.0097C23.1535 80.1563 23.007 80.2628 22.8471 80.2362C22.6873 80.2095 22.5941 80.063 22.6207 79.9032C22.634 79.8632 23.4198 76.1475 28.534 76.4271C30.6783 76.547 32.9157 77.3727 35.0866 78.1585C37.9367 79.2107 40.8934 80.2894 43.7168 79.81C43.8767 79.7833 44.0232 79.8899 44.0498 80.0364C44.0764 80.1962 43.9699 80.3427 43.8234 80.3693C43.304 80.4759 42.7979 80.5158 42.2785 80.5158Z" fill="#C82C2F"/>
<path d="M23.2334 89.3995C18.7851 89.3995 16.5875 85.4573 16.5742 85.4041C16.4943 85.2709 16.5476 85.0978 16.6941 85.0178C16.8273 84.9379 17.0004 84.9912 17.0803 85.1377C17.107 85.1777 19.411 89.3063 24.0458 88.7869C27.1356 88.4406 28.7737 87.1621 30.6783 85.6971C31.7437 84.8713 32.8358 84.019 34.2875 83.2332C39.455 80.4364 43.6236 79.9969 43.7967 79.9835C43.9566 79.9702 44.0897 80.0768 44.1031 80.2366C44.1164 80.3964 44.0098 80.5296 43.85 80.5429C43.8101 80.5429 39.6015 80.9957 34.5539 83.726C33.1421 84.4851 32.0634 85.3242 31.0112 86.1366C29.12 87.6016 27.3487 88.9867 24.099 89.3463C23.806 89.3862 23.513 89.3995 23.2334 89.3995Z" fill="#C82C2F"/>
<defs>
<filter id="filter0_d_2013_16888" x="0.180157" y="0.254642" width="192.3" height="192.62" filterUnits="userSpaceOnUse" color-interpolation-filters="sRGB">
<feFlood flood-opacity="0" result="BackgroundImageFix"/>
<feColorMatrix in="SourceAlpha" type="matrix" values="0 0 0 0 0 0 0 0 0 0 0 0 0 0 0 0 0 0 127 0" result="hardAlpha"/>
<feOffset dy="9.72292"/>
<feGaussianBlur stdDeviation="11.8064"/>
<feColorMatrix type="matrix" values="0 0 0 0 0 0 0 0 0 0 0 0 0 0 0 0 0 0 0.15 0"/>
<feBlend mode="normal" in2="BackgroundImageFix" result="effect1_dropShadow_2013_16888"/>
<feBlend mode="normal" in="SourceGraphic" in2="effect1_dropShadow_2013_16888" result="shape"/>
</filter>
</defs>
</svg>
