<svg width="20" height="20" viewBox="0 0 20 20" fill="none" xmlns="http://www.w3.org/2000/svg">
<g clip-path="url(#clip0_315_690)">
<path d="M13.125 10.625C13.125 11.4538 12.7958 12.2487 12.2097 12.8347C11.6237 13.4208 10.8288 13.75 10 13.75C9.1712 13.75 8.37634 13.4208 7.79029 12.8347C7.20424 12.2487 6.875 11.4538 6.875 10.625C6.875 9.7962 7.20424 9.00134 7.79029 8.41529C8.37634 7.82924 9.1712 7.5 10 7.5C10.8288 7.5 11.6237 7.82924 12.2097 8.41529C12.7958 9.00134 13.125 9.7962 13.125 10.625V10.625Z" fill="white"/>
<path d="M2.5 5C1.83696 5 1.20107 5.26339 0.732233 5.73223C0.263392 6.20107 0 6.83696 0 7.5L0 15C0 15.663 0.263392 16.2989 0.732233 16.7678C1.20107 17.2366 1.83696 17.5 2.5 17.5H17.5C18.163 17.5 18.7989 17.2366 19.2678 16.7678C19.7366 16.2989 20 15.663 20 15V7.5C20 6.83696 19.7366 6.20107 19.2678 5.73223C18.7989 5.26339 18.163 5 17.5 5H16.035C15.372 4.99986 14.7362 4.73637 14.2675 4.2675L13.2325 3.2325C12.7638 2.76363 12.128 2.50014 11.465 2.5H8.535C7.87201 2.50014 7.23623 2.76363 6.7675 3.2325L5.7325 4.2675C5.26377 4.73637 4.62799 4.99986 3.965 5H2.5ZM3.125 7.5C2.95924 7.5 2.80027 7.43415 2.68306 7.31694C2.56585 7.19973 2.5 7.04076 2.5 6.875C2.5 6.70924 2.56585 6.55027 2.68306 6.43306C2.80027 6.31585 2.95924 6.25 3.125 6.25C3.29076 6.25 3.44973 6.31585 3.56694 6.43306C3.68415 6.55027 3.75 6.70924 3.75 6.875C3.75 7.04076 3.68415 7.19973 3.56694 7.31694C3.44973 7.43415 3.29076 7.5 3.125 7.5ZM14.375 10.625C14.375 11.7853 13.9141 12.8981 13.0936 13.7186C12.2731 14.5391 11.1603 15 10 15C8.83968 15 7.72688 14.5391 6.90641 13.7186C6.08594 12.8981 5.625 11.7853 5.625 10.625C5.625 9.46468 6.08594 8.35188 6.90641 7.53141C7.72688 6.71094 8.83968 6.25 10 6.25C11.1603 6.25 12.2731 6.71094 13.0936 7.53141C13.9141 8.35188 14.375 9.46468 14.375 10.625V10.625Z" fill="white"/>
</g>
<defs>
<clipPath id="clip0_315_690">
<rect width="20" height="20" fill="white"/>
</clipPath>
</defs>
</svg>
