<svg width="20" height="20" viewBox="0 0 20 20" fill="none" xmlns="http://www.w3.org/2000/svg">
<path d="M2.99709 3.49609C2.99709 3.36349 3.04977 3.23631 3.14354 3.14254C3.23731 3.04877 3.36449 2.99609 3.49709 2.99609H3.93509C4.66209 2.99609 5.08009 3.46909 5.32209 3.94109C5.48709 4.26409 5.60609 4.65809 5.70509 5.00009H16.0001C16.1546 5.00014 16.307 5.03599 16.4453 5.10484C16.5837 5.17368 16.7042 5.27365 16.7974 5.39689C16.8906 5.52013 16.954 5.66329 16.9825 5.81514C17.0111 5.96699 17.0041 6.1234 16.9621 6.27209L15.4661 11.5471C15.3471 11.9656 15.0949 12.3339 14.7477 12.5961C14.4004 12.8583 13.9772 13.0001 13.5421 13.0001H8.46309C8.02437 13.0002 7.59777 12.8561 7.24901 12.59C6.90026 12.3238 6.6487 11.9503 6.53309 11.5271L5.89109 9.17209C5.88741 9.16154 5.88408 9.15086 5.88109 9.14009L4.85009 5.64309L4.75009 5.30609C4.65009 4.96009 4.56209 4.65409 4.43009 4.39709C4.27109 4.08709 4.12509 3.99709 3.93409 3.99709H3.49609C3.36349 3.99709 3.23631 3.94441 3.14254 3.85065C3.04877 3.75688 2.99609 3.6297 2.99609 3.49709L2.99709 3.49609ZM6.84509 8.87009L7.49809 11.2661C7.55599 11.4776 7.68181 11.6642 7.85618 11.7972C8.03055 11.9302 8.2438 12.0022 8.46309 12.0021H13.5431C13.7605 12.0019 13.972 11.9308 14.1454 11.7996C14.3188 11.6684 14.4447 11.4843 14.5041 11.2751L16.0001 6.00009H6.00009L6.84509 8.86909V8.87009Z" fill="white"/>
<path d="M10 15.5C10 15.8978 9.84196 16.2794 9.56066 16.5607C9.27936 16.842 8.89782 17 8.5 17C8.10218 17 7.72064 16.842 7.43934 16.5607C7.15804 16.2794 7 15.8978 7 15.5C7 15.1022 7.15804 14.7206 7.43934 14.4393C7.72064 14.158 8.10218 14 8.5 14C8.89782 14 9.27936 14.158 9.56066 14.4393C9.84196 14.7206 10 15.1022 10 15.5ZM9 15.5C9 15.3674 8.94732 15.2402 8.85355 15.1464C8.75979 15.0527 8.63261 15 8.5 15C8.36739 15 8.24021 15.0527 8.14645 15.1464C8.05268 15.2402 8 15.3674 8 15.5C8 15.6326 8.05268 15.7598 8.14645 15.8536C8.24021 15.9473 8.36739 16 8.5 16C8.63261 16 8.75979 15.9473 8.85355 15.8536C8.94732 15.7598 9 15.6326 9 15.5Z" fill="white"/>
<path d="M15 15.5C15 15.8978 14.842 16.2794 14.5607 16.5607C14.2794 16.842 13.8978 17 13.5 17C13.1022 17 12.7206 16.842 12.4393 16.5607C12.158 16.2794 12 15.8978 12 15.5C12 15.1022 12.158 14.7206 12.4393 14.4393C12.7206 14.158 13.1022 14 13.5 14C13.8978 14 14.2794 14.158 14.5607 14.4393C14.842 14.7206 15 15.1022 15 15.5ZM14 15.5C14 15.3674 13.9473 15.2402 13.8536 15.1464C13.7598 15.0527 13.6326 15 13.5 15C13.3674 15 13.2402 15.0527 13.1464 15.1464C13.0527 15.2402 13 15.3674 13 15.5C13 15.6326 13.0527 15.7598 13.1464 15.8536C13.2402 15.9473 13.3674 16 13.5 16C13.6326 16 13.7598 15.9473 13.8536 15.8536C13.9473 15.7598 14 15.6326 14 15.5Z" fill="white"/>
</svg>
