<svg width="22" height="21" viewBox="0 0 22 21" fill="none" xmlns="http://www.w3.org/2000/svg">
<path d="M0.00154989 0.725C0.00154989 0.532718 0.0832016 0.348311 0.228542 0.212347C0.373883 0.0763835 0.571007 0 0.77655 0H1.45545C2.5823 0 3.2302 0.68585 3.6053 1.37025C3.86105 1.8386 4.0455 2.4099 4.19895 2.9058H20.1562C20.3957 2.90587 20.6319 2.95785 20.8463 3.05768C21.0608 3.1575 21.2475 3.30245 21.392 3.48115C21.5365 3.65985 21.6347 3.86744 21.679 4.08762C21.7233 4.3078 21.7124 4.5346 21.6473 4.7502L19.3285 12.3989C19.144 13.0058 18.7531 13.5398 18.2149 13.92C17.6767 14.3002 17.0207 14.5059 16.3463 14.5058H8.47385C7.79383 14.506 7.13259 14.297 6.59202 13.9111C6.05145 13.5251 5.66154 12.9836 5.48235 12.3699L4.48725 8.9552C4.48154 8.93989 4.47637 8.92442 4.47175 8.9088L2.8737 3.83815L2.7187 3.3495C2.5637 2.8478 2.4273 2.4041 2.2227 2.03145C1.97625 1.58195 1.74995 1.45145 1.4539 1.45145H0.775C0.569457 1.45145 0.372333 1.37507 0.226992 1.2391C0.0816513 1.10314 0 0.918732 0 0.72645L0.00154989 0.725ZM5.96595 8.5173L6.9781 11.9915C7.06784 12.2982 7.26286 12.5688 7.53313 12.7616C7.8034 12.9545 8.13394 13.0588 8.47385 13.0587H16.3478C16.6849 13.0584 17.0126 12.9553 17.2814 12.7651C17.5502 12.5749 17.7454 12.3079 17.8374 12.0045L20.1562 4.3558H4.6562L5.96595 8.51585V8.5173Z" fill="#F3A446"/>
<path d="M10.8561 18.1301C10.8561 18.7069 10.6111 19.2601 10.1751 19.668C9.73906 20.0759 9.14768 20.3051 8.53106 20.3051C7.91443 20.3051 7.32305 20.0759 6.88703 19.668C6.45101 19.2601 6.20605 18.7069 6.20605 18.1301C6.20605 17.5532 6.45101 17 6.88703 16.5921C7.32305 16.1842 7.91443 15.9551 8.53106 15.9551C9.14768 15.9551 9.73906 16.1842 10.1751 16.5921C10.6111 17 10.8561 17.5532 10.8561 18.1301ZM9.30606 18.1301C9.30606 17.9378 9.2244 17.7534 9.07906 17.6174C8.93372 17.4815 8.7366 17.4051 8.53106 17.4051C8.32551 17.4051 8.12839 17.4815 7.98305 17.6174C7.83771 17.7534 7.75606 17.9378 7.75606 18.1301C7.75606 18.3224 7.83771 18.5068 7.98305 18.6427C8.12839 18.7787 8.32551 18.8551 8.53106 18.8551C8.7366 18.8551 8.93372 18.7787 9.07906 18.6427C9.2244 18.5068 9.30606 18.3224 9.30606 18.1301Z" fill="#F3A446"/>
<path d="M18.6061 18.1301C18.6061 18.7069 18.3611 19.2601 17.9251 19.668C17.4891 20.0759 16.8977 20.3051 16.2811 20.3051C15.6644 20.3051 15.0731 20.0759 14.637 19.668C14.201 19.2601 13.9561 18.7069 13.9561 18.1301C13.9561 17.5532 14.201 17 14.637 16.5921C15.0731 16.1842 15.6644 15.9551 16.2811 15.9551C16.8977 15.9551 17.4891 16.1842 17.9251 16.5921C18.3611 17 18.6061 17.5532 18.6061 18.1301ZM17.0561 18.1301C17.0561 17.9378 16.9744 17.7534 16.8291 17.6174C16.6837 17.4815 16.4866 17.4051 16.2811 17.4051C16.0755 17.4051 15.8784 17.4815 15.733 17.6174C15.5877 17.7534 15.5061 17.9378 15.5061 18.1301C15.5061 18.3224 15.5877 18.5068 15.733 18.6427C15.8784 18.7787 16.0755 18.8551 16.2811 18.8551C16.4866 18.8551 16.6837 18.7787 16.8291 18.6427C16.9744 18.5068 17.0561 18.3224 17.0561 18.1301Z" fill="#F3A446"/>
</svg>
