<svg width="21" height="21" viewBox="0 0 21 21" fill="none" xmlns="http://www.w3.org/2000/svg">
<path d="M10.5 19.25C5.66751 19.25 1.75 15.3325 1.75 10.5C1.75 5.66751 5.66751 1.75 10.5 1.75C15.3325 1.75 19.25 5.66751 19.25 10.5C19.2447 15.3303 15.3303 19.2447 10.5 19.25ZM10.5 3.5C6.63401 3.5 3.5 6.63401 3.5 10.5C3.5 14.366 6.63401 17.5 10.5 17.5C14.366 17.5 17.5 14.366 17.5 10.5C17.4957 6.63581 14.3642 3.50434 10.5 3.5ZM10.4563 13.5625L6.125 9.23125L7.36225 7.994L10.4563 11.0871L13.5503 7.994L14.7875 9.23125L10.4563 13.5625Z" fill="#F3A446"/>
</svg>
