<svg width="40" height="27" viewBox="0 0 40 40" fill="none" xmlns="http://www.w3.org/2000/svg">
<path d="M31.111 33.3327H6.66656V8.88824H21.3554L23.5777 6.66602H6.66656C6.07719 6.66602 5.51196 6.90014 5.09521 7.31689C4.67846 7.73364 4.44434 8.29887 4.44434 8.88824V33.3327C4.44434 33.9221 4.67846 34.4873 5.09521 34.904C5.51196 35.3208 6.07719 35.5549 6.66656 35.5549H31.111C31.7004 35.5549 32.2656 35.3208 32.6823 34.904C33.0991 34.4873 33.3332 33.9221 33.3332 33.3327V16.666L31.111 18.8882V33.3327Z" fill="#F3A446"/>
<path d="M37.2557 6.48888L33.5113 2.74444C33.3451 2.5778 33.1477 2.4456 32.9303 2.35539C32.713 2.26518 32.4799 2.21875 32.2446 2.21875C32.0093 2.21875 31.7763 2.26518 31.5589 2.35539C31.3415 2.4456 31.1441 2.5778 30.9779 2.74444L15.7446 18.0667L14.5113 23.4111C14.4587 23.6702 14.4643 23.9377 14.5275 24.1943C14.5906 24.451 14.7099 24.6905 14.8768 24.8956C15.0436 25.1006 15.2537 25.2662 15.4922 25.3803C15.7306 25.4944 15.9914 25.5543 16.2557 25.5555C16.3923 25.5706 16.5302 25.5706 16.6668 25.5555L22.0557 24.3667L37.2557 9.02222C37.4224 8.85604 37.5546 8.65862 37.6448 8.44126C37.735 8.2239 37.7814 7.99088 37.7814 7.75555C37.7814 7.52022 37.735 7.2872 37.6448 7.06984C37.5546 6.85248 37.4224 6.65506 37.2557 6.48888V6.48888ZM20.9002 22.3111L16.8335 23.2111L17.7779 19.1778L29.2446 7.63333L32.3779 10.7667L20.9002 22.3111ZM33.6335 9.5111L30.5002 6.37777L32.2224 4.62221L35.3779 7.77777L33.6335 9.5111Z" fill="#F3A446"/>
</svg>
