<svg width="24" height="24" viewBox="0 0 24 24" fill="none" xmlns="http://www.w3.org/2000/svg">
<path d="M9.73049 2.78799C11.0005 1.77899 12.7805 1.73899 14.0895 2.66799L14.2505 2.78799L20.3395 7.65899C21.0095 8.17799 21.4205 8.94899 21.4905 9.78799L21.5005 9.98899V18.098C21.5005 20.188 19.8495 21.888 17.7805 21.998H15.7905C14.8395 21.979 14.0705 21.239 14.0005 20.309L13.9905 20.168V17.309C13.9905 16.998 13.7595 16.739 13.4505 16.688L13.3605 16.678H10.6895C10.3705 16.688 10.1105 16.918 10.0705 17.218L10.0605 17.309V20.159C10.0605 20.218 10.0495 20.288 10.0405 20.338L10.0305 20.359L10.0195 20.428C9.90049 21.279 9.20049 21.928 8.33049 21.989L8.20049 21.998H6.41049C4.32049 21.998 2.61049 20.359 2.50049 18.298V9.98899C2.50949 9.13799 2.88049 8.34799 3.50049 7.79799L9.73049 2.78799ZM13.3805 3.87799C12.6205 3.26799 11.5405 3.23899 10.7405 3.76799L10.5895 3.87799L4.50949 8.77899C4.16049 9.03799 3.95049 9.42799 3.90049 9.83799L3.88949 9.99799V18.098C3.88949 19.428 4.92949 20.518 6.25049 20.598H8.20049C8.42049 20.598 8.61049 20.449 8.63949 20.239L8.66049 20.059L8.67049 20.008V17.309C8.67049 16.239 9.49049 15.369 10.5405 15.288H13.3605C14.4295 15.288 15.2995 16.109 15.3805 17.159V20.168C15.3805 20.378 15.5305 20.559 15.7305 20.598H17.5895C18.9295 20.598 20.0195 19.569 20.0995 18.258L20.1105 18.098V9.99799C20.0995 9.56899 19.9205 9.16799 19.6105 8.86899L19.4805 8.75799L13.3805 3.87799Z" fill="white"/>
</svg>
