<svg width="27" height="16" viewBox="0 0 27 16" fill="none" xmlns="http://www.w3.org/2000/svg">
<path d="M18.5865 12.3401C18.5227 12.3399 18.4596 12.3283 18.4009 12.3061C18.3421 12.2838 18.2888 12.2513 18.2442 12.2105L9.04011 3.9597C8.98964 3.92096 8.94865 3.87328 8.91971 3.81965C8.89077 3.76603 8.87451 3.70763 8.87194 3.6481C8.86938 3.58858 8.88057 3.52923 8.9048 3.47376C8.92904 3.4183 8.96581 3.36793 9.0128 3.32581C9.05979 3.28369 9.11598 3.25073 9.17785 3.229C9.23972 3.20727 9.30593 3.19724 9.37233 3.19954C9.43873 3.20184 9.50389 3.21642 9.5637 3.24236C9.62352 3.2683 9.67671 3.30505 9.71993 3.35029L18.924 11.6011C19.0138 11.6821 19.0642 11.7916 19.0642 11.9058C19.0642 12.02 19.0138 12.1295 18.924 12.2105C18.835 12.2919 18.7137 12.3385 18.5865 12.3401Z" fill="#F3A446"/>
<path d="M18.3216 9.07672C17.9402 9.07672 17.5673 8.97533 17.2502 8.78537C16.933 8.59541 16.6858 8.32541 16.5399 8.00951C16.3939 7.69362 16.3557 7.34601 16.4301 7.01066C16.5045 6.67531 16.6882 6.36727 16.9579 6.12549C17.2276 5.88372 17.5713 5.71907 17.9454 5.65236C18.3195 5.58565 18.7073 5.61989 19.0597 5.75074C19.4121 5.88159 19.7132 6.10317 19.9252 6.38747C20.1371 6.67177 20.2502 7.00601 20.2502 7.34793C20.2502 7.80644 20.047 8.24616 19.6853 8.57037C19.3236 8.89458 18.8331 9.07672 18.3216 9.07672ZM18.3216 6.48354C18.1309 6.48354 17.9445 6.53423 17.7859 6.62921C17.6273 6.72419 17.5037 6.85919 17.4307 7.01714C17.3578 7.17509 17.3387 7.34889 17.3759 7.51657C17.4131 7.68424 17.5049 7.83826 17.6398 7.95915C17.7746 8.08004 17.9465 8.16236 18.1335 8.19572C18.3206 8.22907 18.5144 8.21195 18.6906 8.14653C18.8668 8.0811 19.0174 7.97031 19.1234 7.82816C19.2294 7.68602 19.2859 7.51889 19.2859 7.34793C19.2859 7.11868 19.1843 6.89882 19.0035 6.73671C18.8226 6.57461 18.5774 6.48354 18.3216 6.48354Z" fill="#F3A446"/>
<path d="M8.67856 9.50836C8.29713 9.50836 7.92426 9.40697 7.60711 9.21701C7.28996 9.02705 7.04277 8.75705 6.8968 8.44115C6.75084 8.12526 6.71264 7.77765 6.78706 7.4423C6.86147 7.10695 7.04515 6.79891 7.31486 6.55713C7.58458 6.31536 7.92821 6.15071 8.30232 6.084C8.67642 6.01729 9.06419 6.05153 9.41659 6.18238C9.76898 6.31323 10.0702 6.53481 10.2821 6.81911C10.494 7.10341 10.6071 7.43765 10.6071 7.77957C10.6071 8.23808 10.4039 8.6778 10.0423 9.00201C9.68058 9.32622 9.19004 9.50836 8.67856 9.50836ZM8.67856 6.91518C8.48784 6.91518 8.30141 6.96587 8.14283 7.06085C7.98426 7.15583 7.86067 7.29083 7.78768 7.44878C7.7147 7.60673 7.6956 7.78053 7.73281 7.94821C7.77002 8.11588 7.86185 8.2699 7.99671 8.39079C8.13157 8.51168 8.30339 8.59401 8.49044 8.62736C8.67749 8.66071 8.87137 8.64359 9.04757 8.57817C9.22377 8.51274 9.37437 8.40195 9.48033 8.2598C9.58628 8.11766 9.64284 7.95053 9.64284 7.77957C9.64284 7.55032 9.54124 7.33046 9.36041 7.16835C9.17957 7.00625 8.9343 6.91518 8.67856 6.91518Z" fill="#F3A446"/>
<path d="M26.5179 15.5593H0.482143C0.354271 15.5593 0.231636 15.5138 0.141216 15.4327C0.0507971 15.3517 0 15.2417 0 15.1271V10.8051C0 10.6905 0.0507971 10.5805 0.141216 10.4995C0.231636 10.4184 0.354271 10.3729 0.482143 10.3729C1.24938 10.3729 1.98519 10.0997 2.5277 9.61335C3.07022 9.12702 3.375 8.46743 3.375 7.77966C3.375 7.0919 3.07022 6.4323 2.5277 5.94598C1.98519 5.45966 1.24938 5.18644 0.482143 5.18644C0.354271 5.18644 0.231636 5.14091 0.141216 5.05985C0.0507971 4.9788 0 4.86887 0 4.75424V0.432204C0 0.317576 0.0507971 0.207643 0.141216 0.12659C0.231636 0.0455357 0.354271 0 0.482143 0H26.5179C26.6457 0 26.7684 0.0455357 26.8588 0.12659C26.9492 0.207643 27 0.317576 27 0.432204V4.75424C27 4.86887 26.9492 4.9788 26.8588 5.05985C26.7684 5.14091 26.6457 5.18644 26.5179 5.18644C25.7506 5.18644 25.0148 5.45966 24.4723 5.94598C23.9298 6.4323 23.625 7.0919 23.625 7.77966C23.625 8.46743 23.9298 9.12702 24.4723 9.61335C25.0148 10.0997 25.7506 10.3729 26.5179 10.3729C26.6457 10.3729 26.7684 10.4184 26.8588 10.4995C26.9492 10.5805 27 10.6905 27 10.8051V15.1271C27 15.2417 26.9492 15.3517 26.8588 15.4327C26.7684 15.5138 26.6457 15.5593 26.5179 15.5593ZM0.964286 14.6949H26.0357V11.2114C25.1015 11.1082 24.2415 10.7024 23.6179 10.0703C22.9943 9.43818 22.6501 8.62348 22.6501 7.77966C22.6501 6.93584 22.9943 6.12115 23.6179 5.48906C24.2415 4.85697 25.1015 4.45112 26.0357 4.34797V0.864407H0.964286V4.34797C1.89855 4.45112 2.75848 4.85697 3.38208 5.48906C4.00569 6.12115 4.34991 6.93584 4.34991 7.77966C4.34991 8.62348 4.00569 9.43818 3.38208 10.0703C2.75848 10.7024 1.89855 11.1082 0.964286 11.2114V14.6949Z" fill="#F3A446"/>
</svg>
