<svg width="38" height="35" viewBox="0 0 38 35" fill="none" xmlns="http://www.w3.org/2000/svg">
<path d="M27.0996 19.9423C27.0352 19.9772 26.9638 19.9977 26.8895 20.0025C26.8152 20.0074 26.7395 19.9965 26.6668 19.9705L11.7929 14.8187C11.7158 14.7985 11.6421 14.762 11.5765 14.7115C11.5109 14.661 11.4549 14.5975 11.4118 14.5251C11.3688 14.4528 11.3397 14.373 11.3265 14.2908C11.3132 14.2087 11.316 14.1259 11.3347 14.0478C11.3533 13.9696 11.3875 13.8978 11.435 13.8367C11.4826 13.7756 11.5424 13.7266 11.6108 13.6928C11.6793 13.659 11.7548 13.6412 11.8326 13.6403C11.9105 13.6395 11.989 13.6557 12.0633 13.688L26.9372 18.8397C27.0826 18.8906 27.2078 18.9986 27.2854 19.1401C27.363 19.2817 27.3867 19.4454 27.3513 19.5953C27.317 19.7454 27.2265 19.8701 27.0996 19.9423Z" fill="#F3A446"/>
<path d="M24.6146 16.0433C24.2305 16.2538 23.7862 16.3338 23.3378 16.2733C22.8894 16.2128 22.457 16.0144 22.0954 15.7032C21.7338 15.3921 21.4591 14.9822 21.3061 14.5253C21.1532 14.0684 21.1288 13.5851 21.2361 13.1365C21.3433 12.6879 21.5774 12.2941 21.9088 12.0049C22.2401 11.7158 22.6538 11.5443 23.0975 11.5121C23.5413 11.4799 23.9951 11.5884 24.4017 11.824C24.8082 12.0596 25.1492 12.4116 25.3816 12.8356C25.6932 13.4041 25.7874 14.0614 25.6435 14.663C25.4997 15.2646 25.1296 15.7611 24.6146 16.0433ZM22.8524 12.8279C22.6604 12.9332 22.5071 13.0989 22.412 13.3042C22.3169 13.5095 22.2842 13.745 22.318 13.9812C22.3519 14.2173 22.4508 14.4433 22.6022 14.6307C22.7536 14.8181 22.9507 14.9584 23.1686 15.0339C23.3866 15.1093 23.6155 15.1166 23.8265 15.0548C24.0375 14.9929 24.2211 14.8647 24.354 14.6863C24.487 14.508 24.5633 14.2875 24.5734 14.0528C24.5835 13.8181 24.5269 13.5796 24.4107 13.3677C24.2549 13.0834 24.0032 12.8668 23.711 12.7656C23.4188 12.6644 23.1099 12.6868 22.8524 12.8279Z" fill="#F3A446"/>
<path d="M15.1995 21.8988C14.8155 22.1093 14.3712 22.1893 13.9228 22.1288C13.4743 22.0682 13.042 21.8699 12.6804 21.5587C12.3187 21.2476 12.0441 20.8376 11.8911 20.3807C11.7381 19.9239 11.7138 19.4406 11.821 18.9919C11.9283 18.5433 12.1624 18.1495 12.4937 17.8604C12.8251 17.5713 13.2388 17.3997 13.6825 17.3675C14.1262 17.3353 14.5801 17.4439 14.9866 17.6795C15.3932 17.915 15.7342 18.2671 15.9666 18.691C16.2781 19.2596 16.3724 19.9169 16.2285 20.5185C16.0847 21.1201 15.7145 21.6166 15.1995 21.8988ZM13.4374 18.6834C13.2454 18.7886 13.0921 18.9544 12.997 19.1597C12.9019 19.3649 12.8691 19.6005 12.903 19.8366C12.9368 20.0728 13.0357 20.2988 13.1871 20.4862C13.3385 20.6736 13.5357 20.8139 13.7536 20.8893C13.9715 20.9648 14.2005 20.9721 14.4115 20.9102C14.6225 20.8484 14.806 20.7202 14.939 20.5418C15.0719 20.3635 15.1483 20.143 15.1584 19.9083C15.1685 19.6735 15.1118 19.4351 14.9957 19.2231C14.8399 18.9389 14.5882 18.7223 14.2959 18.6211C14.0037 18.5199 13.6949 18.5423 13.4374 18.6834Z" fill="#F3A446"/>
<path d="M37.2729 19.5587L11.0586 33.9251C10.9298 33.9957 10.7754 34.0069 10.6293 33.9563C10.4832 33.9057 10.3573 33.7974 10.2794 33.6552L7.34246 28.2962C7.26457 28.154 7.24101 27.9897 7.27697 27.8393C7.31293 27.6889 7.40546 27.5648 7.53421 27.4942C8.30671 27.0708 8.86191 26.3261 9.07767 25.4237C9.29343 24.5213 9.15208 23.5353 8.68472 22.6825C8.21736 21.8297 7.46226 21.18 6.58555 20.8763C5.70884 20.5727 4.78233 20.6399 4.00983 21.0633C3.88108 21.1339 3.72666 21.1451 3.58054 21.0945C3.43443 21.0438 3.30858 20.9356 3.23068 20.7934L0.293698 15.4343C0.215805 15.2922 0.192247 15.1279 0.228207 14.9775C0.264168 14.8271 0.3567 14.703 0.48545 14.6324L26.6997 0.265962C26.8285 0.195403 26.9829 0.184194 27.129 0.234803C27.2751 0.285413 27.401 0.393694 27.4789 0.535826L30.4159 5.89491C30.4938 6.03704 30.5173 6.20138 30.4814 6.35178C30.4454 6.50217 30.3529 6.62631 30.2241 6.69687C29.4516 7.12022 28.8964 7.86501 28.6807 8.76738C28.4649 9.66975 28.6062 10.6558 29.0736 11.5086C29.541 12.3614 30.2961 13.0111 31.1728 13.3147C32.0495 13.6184 32.976 13.5511 33.7485 13.1278C33.8772 13.0572 34.0317 13.046 34.1778 13.0966C34.3239 13.1472 34.4497 13.2555 34.5276 13.3976L37.4646 18.7567C37.5425 18.8989 37.5661 19.0632 37.5301 19.2136C37.4942 19.364 37.4016 19.4881 37.2729 19.5587ZM10.9566 32.5872L36.2 18.7529L33.8328 14.4335C32.8221 14.8211 31.6804 14.7924 30.623 14.3527C29.5656 13.9131 28.6654 13.0928 28.092 12.0465C27.5186 11.0002 27.3116 9.80013 27.5099 8.67227C27.7083 7.54441 28.2983 6.56667 29.1689 5.92325L26.8017 1.60382L1.5583 15.4382L3.92551 19.7576C4.93627 19.37 6.07789 19.3987 7.1353 19.8383C8.19271 20.278 9.09291 21.0982 9.66632 22.1445C10.2397 23.1908 10.4468 24.3909 10.2484 25.5188C10.05 26.6467 9.46001 27.6244 8.58944 28.2678L10.9566 32.5872Z" fill="#F3A446"/>
</svg>
